<?xml version="1.0" encoding="UTF-8" standalone="no"?>
<!-- Created with Inkscape (http://www.inkscape.org/) -->

<svg
   xmlns:dc="http://purl.org/dc/elements/1.1/"
   xmlns:cc="http://creativecommons.org/ns#"
   xmlns:rdf="http://www.w3.org/1999/02/22-rdf-syntax-ns#"
   xmlns:svg="http://www.w3.org/2000/svg"
   xmlns="http://www.w3.org/2000/svg"
   xmlns:sodipodi="http://sodipodi.sourceforge.net/DTD/sodipodi-0.dtd"
   xmlns:inkscape="http://www.inkscape.org/namespaces/inkscape"
   id="svg2"
   version="1.1"
   inkscape:version="0.91 r13725"
   width="601"
   height="239"
   sodipodi:docname="logo.svg"
   inkscape:export-filename="C:\Users\Jack\Desktop\Icons\TBO logo.png"
   inkscape:export-xdpi="180"
   inkscape:export-ydpi="180">
  <metadata
     id="metadata8">
    <rdf:RDF>
      <cc:Work
         rdf:about="">
        <dc:format>image/svg+xml</dc:format>
        <dc:type
           rdf:resource="http://purl.org/dc/dcmitype/StillImage" />
        <dc:title></dc:title>
      </cc:Work>
    </rdf:RDF>
  </metadata>
  <defs
     id="defs6" />
  <sodipodi:namedview
     pagecolor="#ffffff"
     bordercolor="#666666"
     borderopacity="1"
     objecttolerance="10"
     gridtolerance="10"
     guidetolerance="10"
     inkscape:pageopacity="0"
     inkscape:pageshadow="2"
     inkscape:window-width="1920"
     inkscape:window-height="1017"
     id="namedview4"
     showgrid="false"
     inkscape:zoom="1.4805275"
     inkscape:cx="290.88531"
     inkscape:cy="139.18997"
     inkscape:window-x="-8"
     inkscape:window-y="-8"
     inkscape:window-maximized="1"
     inkscape:current-layer="svg2" />
  <path
     style="fill:#dcdcdc;fill-opacity:1;stroke:#000000;stroke-width:1px;stroke-linecap:butt;stroke-linejoin:miter;stroke-opacity:1"
     d="m 141.19322,14.862231 c 3.20854,2.807549 5.9099,6.206561 11.85934,5.817787 l 30.4315,0.671283 5.37026,-4.698982 1.34257,0 0,12.75438 -3.35641,-0.447522 -3.80394,-4.698982 -30.20774,-0.447522 c -4.58563,0.674235 -8.23367,3.223647 -11.63558,6.265309 -1.79009,-4.475221 -1.79009,-9.547138 0,-15.215751 z"
     id="path3013"
     inkscape:connector-curvature="0"
     sodipodi:nodetypes="ccccccccccc" />
  <path
     style="fill:#2d2d2d;stroke:#000000;stroke-width:1px;stroke-linecap:butt;stroke-linejoin:miter;stroke-opacity:1;fill-opacity:1"
     d="M 204.74219 141.2168 L 153.94727 149.04883 L 115.46094 147.48242 L 135.375 186.64062 L 407.24414 185.52148 L 458.26172 168.96289 L 564.10156 169.63477 L 581.55469 179.70312 L 589.61133 179.70312 L 589.38672 154.86523 L 565.2207 144.34961 L 565.66797 149.04883 L 502.11914 149.27148 L 502.56641 142.7832 L 204.74219 141.2168 z M 577.4375 157.2168 L 581.36523 159.43555 L 581.36523 173.0957 L 577.0957 170.70508 L 577.4375 157.2168 z "
     id="path3005" />
  <path
     style="fill:#808080;stroke:#000000;stroke-width:1px;stroke-linecap:butt;stroke-linejoin:miter;stroke-opacity:1;fill-opacity:1"
     d="m 508.83262,107.65227 21.70482,0.44752 5.14651,2.46137 13.64942,0.44752 13.42566,5.59403 4.69898,33.78792 -67.12831,0.67128 0.22376,-6.04155 -292.00816,-1.1188 1.1188,-17.22961 296.93091,-0.22376 -0.89504,-20.13849 z"
     id="path3007"
     inkscape:connector-curvature="0" />
  <path
     style="fill:#2d2d2d;fill-opacity:1;stroke:#000000;stroke-width:1px;stroke-linecap:butt;stroke-linejoin:miter;stroke-opacity:1"
     d="m 30.172341,178.73748 9.397964,2.68514 86.148005,5.1465 -10.51677,-32.89287 -28.417654,-17.90089 -35.354245,6.04155 -19.690972,20.58602 z"
     id="path3017"
     inkscape:connector-curvature="0" />
  <path
     style="fill:#dcdcdc;stroke:#000000;stroke-width:1px;stroke-linecap:butt;stroke-linejoin:miter;stroke-opacity:1;fill-opacity:1"
     d="m 11.411813,158.22226 2.237611,-2.01385 c 0.522255,1.67814 -0.508538,4.1328 4.475221,3.58018 l 23.49491,1.34257 c -5.57932,8.4855 -12.052017,16.89655 -10.740531,25.95628 L 10.74053,183.95478 z"
     id="path2987"
     inkscape:connector-curvature="0"
     sodipodi:nodetypes="ccccccc" />
  <path
     style="fill:#d45500;stroke:#000000;stroke-width:1px;stroke-linecap:butt;stroke-linejoin:miter;stroke-opacity:1"
     d="m 118.5573,34.414308 c -0.0639,-5.222602 2.24174,-5.311081 6.03652,-2.173148 l 1.20731,2.414609 -4.82922,1.448766 z"
     id="path3929"
     inkscape:connector-curvature="0"
     sodipodi:nodetypes="ccccc" />
  <rect
     style="fill:#d45500;fill-opacity:1;fill-rule:nonzero;stroke:#ff0000;stroke-width:1.63100011;stroke-linecap:round;stroke-linejoin:miter;stroke-miterlimit:4;stroke-opacity:1;stroke-dasharray:none;stroke-dashoffset:0"
     id="rect4165"
     width="70.084137"
     height="7.6596565"
     x="123.46505"
     y="137.093"
     transform="matrix(0.99998333,0.00577434,-0.00525083,0.99998621,0,0)" />
  <rect
     style="fill:#ffffff;fill-opacity:1;fill-rule:nonzero;stroke:#aa4400;stroke-width:0;stroke-linecap:round;stroke-linejoin:miter;stroke-miterlimit:4;stroke-opacity:1;stroke-dasharray:none;stroke-dashoffset:0"
     id="rect3057"
     width="82.687317"
     height="111.89527"
     x="121.357"
     y="37.423958" />
  <path
     style="fill:#ffffff;stroke:#000000;stroke-width:1px;stroke-linecap:butt;stroke-linejoin:miter;stroke-opacity:1;fill-opacity:1"
     d="M 178.75 27.78125 C 163.08584 28.036146 144.97096 30.309601 127.53125 32.03125 L 118.59375 34.03125 L 108.75 38.96875 L 120.84375 42.09375 L 110.3125 76.09375 L 102.71875 81.46875 L 26.1875 96.03125 C 17.928806 98.269899 15.8268 104.01455 15.875 111 L 15.65625 141.875 L 13.875 155.53125 L 15.875 159.78125 L 41.625 160.46875 C 55.971707 138.18387 114.85456 128.74623 121.28125 187.09375 L 131.78125 187.09375 C 135.53687 187.32364 136.75584 185.46999 138.0625 183.71875 C 142.02624 169.45447 134.10833 160.79287 128.4375 151.0625 L 212.125 152.1875 L 211.6875 36.0625 L 209.4375 32.03125 C 201.63319 28.612132 190.93323 27.582997 178.75 27.78125 z M 182.15625 42.09375 C 188.59405 43.567354 192.27613 47.193338 193.34375 52.84375 L 192 133.84375 C 191.9782 139.08576 189.75111 142.67213 182.59375 142.5625 L 138.28125 142.125 C 130.35058 141.76632 128.88972 137.62215 128 133.15625 L 128.21875 81.03125 L 134.9375 49.25 C 137.4143 45.103978 140.95354 43.100452 145.21875 42.53125 L 182.15625 42.09375 z "
     id="path2989" />
  <path
     style="fill:#d2e4fa;stroke:#000000;stroke-width:1px;stroke-linecap:butt;stroke-linejoin:miter;stroke-opacity:1;fill-opacity:1"
     d="m 110.76172,75.654436 10.51677,4.027699 10.96429,-37.144334 -11.63558,-0.671283 z"
     id="path2991"
     inkscape:connector-curvature="0" />
  <rect
     style="fill:#d45500;stroke:#000000"
     id="rect2995"
     width="4.6989856"
     height="8.950407"
     x="21.513836"
     y="113.92763" />
  <path
     style="fill:#d2e4fa;stroke:#000000;stroke-width:1px;stroke-linecap:butt;stroke-linejoin:miter;stroke-opacity:1;fill-opacity:1"
     d="m 132.91406,79.458374 7.16036,-31.102786 42.06707,-1.118805 c 1.94143,1.274723 4.15279,-0.561014 6.04155,4.922743 l -0.22376,27.74637 z"
     id="path2997"
     inkscape:connector-curvature="0"
     sodipodi:nodetypes="cccccc" />
  <path
     style="fill:#808080;stroke:#000000;stroke-width:1px;stroke-linecap:butt;stroke-linejoin:miter;stroke-opacity:1;fill-opacity:1"
     d="m 567.01049,84.381117 3.58018,24.389953 -7.16035,0.44752 c -11.0543,-5.4203 -13.0623,-13.307781 -18.12465,-20.362252 l -28.41765,-0.671284 -7.16036,-0.223761 5.14651,-6.265309 z"
     id="path3003"
     inkscape:connector-curvature="0"
     sodipodi:nodetypes="cccccccc" />
  <path
     style="fill:#b3b3b3;stroke:#000000;stroke-width:1px;stroke-linecap:butt;stroke-linejoin:miter;stroke-opacity:1;fill-opacity:1"
     d="m 222.866,129.35709 -10.74053,0.22376 -0.22376,-94.650925 6.26531,2.461372 10.51677,8.950442 -0.67128,79.435171 z"
     id="path3001"
     inkscape:connector-curvature="0" />
  <path
     style="fill:#dcdcdc;stroke:#000000;stroke-width:1px;stroke-linecap:butt;stroke-linejoin:miter;stroke-opacity:1;fill-opacity:1"
     d="m 211.00667,34.706164 c 1.84547,-6.07995 4.28475,-10.972296 8.50292,-12.306857 l 0.22376,-2.237611 333.85148,1.566327 13.2019,62.653094 -53.03137,0.223761 c -1.79447,1.697969 -4.20811,0.919273 -4.92274,6.936592 l -0.44752,36.47305 -285.5191,1.56633 2.9089,-3.58018 1.1188,-75.854994 c 0.61097,-7.189705 -5.9724,-8.983651 -9.62172,-12.97814 z"
     id="path2999"
     inkscape:connector-curvature="0"
     sodipodi:nodetypes="ccccccccccccc" />
  <path
     style="fill:#101010;fill-opacity:1;stroke:#000000;stroke-width:1.09079564000000010px;stroke-linecap:butt;stroke-linejoin:miter;stroke-opacity:1"
     d="m 145.99573,204.71916 0.24407,-40.02872 62.48386,0 0,39.05242 z"
     id="path3015"
     inkscape:connector-curvature="0" />
  <path
     sodipodi:type="arc"
     style="fill:#000000;stroke:#000000"
     id="path3019-1-7"
     sodipodi:cx="39.717587"
     sodipodi:cy="77.332642"
     sodipodi:rx="6.6009507"
     sodipodi:ry="6.3771896"
     d="m 46.318537,77.332642 a 6.6009507,6.3771896 0 1 1 -13.201901,0 6.6009507,6.3771896 0 1 1 13.201901,0 z"
     transform="matrix(5.5379456,0,0,5.7322594,-142.0827,-249.56468)" />
  <path
     sodipodi:type="arc"
     style="fill:#00004c;stroke:#00004c;fill-opacity:1;stroke-opacity:1"
     id="path3019"
     sodipodi:cx="39.717587"
     sodipodi:cy="77.332642"
     sodipodi:rx="6.6009507"
     sodipodi:ry="6.3771896"
     d="m 46.318537,77.332642 a 6.6009507,6.3771896 0 1 1 -13.201901,0 6.6009507,6.3771896 0 1 1 13.201901,0 z"
     transform="matrix(3.2030285,0,0,3.3154154,-49.345424,-62.663746)" />
  <path
     sodipodi:type="arc"
     style="fill:#cccccc;stroke:#cccccc;fill-opacity:1;stroke-opacity:1"
     id="path3019-1"
     sodipodi:cx="39.717587"
     sodipodi:cy="77.332642"
     sodipodi:rx="6.6009507"
     sodipodi:ry="6.3771896"
     d="m 46.318537,77.332642 a 6.6009507,6.3771896 0 1 1 -13.201901,0 6.6009507,6.3771896 0 1 1 13.201901,0 z"
     transform="matrix(0.92754558,0,0,0.96009102,41.031266,119.47971)" />
  <path
     sodipodi:type="arc"
     style="fill:#000000;stroke:#000000"
     id="path3019-1-7-9"
     sodipodi:cx="39.717587"
     sodipodi:cy="77.332642"
     sodipodi:rx="6.6009507"
     sodipodi:ry="6.3771896"
     d="m 46.318537,77.332642 a 6.6009507,6.3771896 0 1 1 -13.201901,0 6.6009507,6.3771896 0 1 1 13.201901,0 z"
     transform="matrix(5.5379456,0,0,5.7322594,209.84656,-249.68541)" />
  <path
     sodipodi:type="arc"
     style="fill:#00004c;stroke:#00004c;fill-opacity:1;stroke-opacity:1"
     id="path3019-4"
     sodipodi:cx="39.717587"
     sodipodi:cy="77.332642"
     sodipodi:rx="6.6009507"
     sodipodi:ry="6.3771896"
     d="m 46.318537,77.332642 a 6.6009507,6.3771896 0 1 1 -13.201901,0 6.6009507,6.3771896 0 1 1 13.201901,0 z"
     transform="matrix(3.2030285,0,0,3.3154154,302.58384,-62.78448)" />
  <path
     sodipodi:type="arc"
     style="fill:#cccccc;stroke:#cccccc;fill-opacity:1;stroke-opacity:1"
     id="path3019-1-0"
     sodipodi:cx="39.717587"
     sodipodi:cy="77.332642"
     sodipodi:rx="6.6009507"
     sodipodi:ry="6.3771896"
     d="m 46.318537,77.332642 a 6.6009507,6.3771896 0 1 1 -13.201901,0 6.6009507,6.3771896 0 1 1 13.201901,0 z"
     transform="matrix(0.92754558,0,0,0.96009102,392.96053,119.35897)" />
  <rect
     style="fill:#cccccc;fill-opacity:1;fill-rule:nonzero;stroke:#000000"
     id="rect3083"
     width="2.8975232"
     height="15.453526"
     x="16.902262"
     y="125.51338" />
  <rect
     style="fill:#999999;fill-opacity:1;fill-rule:nonzero;stroke:#000000;stroke-width:0.69999999000000002;stroke-linecap:round;stroke-linejoin:miter;stroke-miterlimit:4;stroke-opacity:1;stroke-dasharray:none;stroke-dashoffset:0"
     id="rect4079"
     width="68.454163"
     height="46.11903"
     x="277.5593"
     y="134.44743" />
  <rect
     style="fill:#cccccc;fill-opacity:1;fill-rule:nonzero;stroke:#000000;stroke-width:0.89986879"
     id="rect3083-4"
     width="5.1661701"
     height="7.018497"
     x="304.72366"
     y="155.45451" />
  <rect
     style="fill:#cccccc;fill-opacity:1;fill-rule:nonzero;stroke:#000000;stroke-width:0.89986879"
     id="rect3083-4-8"
     width="5.1661701"
     height="7.018497"
     x="314.69653"
     y="155.32574" />
  <g
     id="g3911"
     transform="matrix(0.17388805,0,0,0.17388805,513.13169,38.276679)"
     style="fill:#ffffff;stroke:#ffffff">
    <title
       id="title3913">Layer 1</title>
    <g
       id="g4697"
       transform="matrix(-0.70710678,0.70710678,-0.70710678,-0.70710678,299.64623,117.04647)"
       style="fill:#ffffff;stroke:#ffffff">
      <rect
         y="49.716526"
         x="54.716537"
         height="141.73228"
         width="141.73228"
         id="rect18540"
         style="fill:#ffffff;fill-rule:evenodd;stroke-width:1pt;stroke:#ffffff" />
      <g
         id="g17270"
         style="fill:#ffffff;stroke:#ffffff" />
      <path
         stroke-miterlimit="4"
         id="path574"
         d="m 196.449,49.716499 -141.732501,0 0,141.732501 141.732501,0 0,-70.8663 0,-70.8662 0,0 0,0 z"
         inkscape:connector-curvature="0"
         style="fill:#ffffff;fill-opacity:0.75000000000000000;fill-rule:evenodd;stroke:#ffffff;stroke-width:5.24532938000000030;stroke-linejoin:round;stroke-miterlimit:4;stroke-dasharray:none" />
    </g>
  </g>
  <path
     style="fill:#ff0000;fill-opacity:1;fill-rule:nonzero;stroke:#ff0000;stroke-width:0.59912139;stroke-linecap:round;stroke-linejoin:miter;stroke-miterlimit:4;stroke-opacity:1;stroke-dashoffset:0"
     d="m 216.51994,35.477531 339.07406,-0.394829 0.44819,2.148284 -337.51607,0.0747 z"
     id="rect3933-8-2-4"
     inkscape:connector-curvature="0"
     sodipodi:nodetypes="ccccc" />
  <path
     style="fill:#ff0000;stroke:none;stroke-width:1px;stroke-linecap:butt;stroke-linejoin:miter;stroke-opacity:1;fill-opacity:1"
     d="m 217.68109,36.802769 -2.7745,-1.09913 0.9604,-0.618927 2.45437,0.73631 0,0.896378 z"
     id="path4020"
     inkscape:connector-curvature="0" />
  <path
     style="fill:#d45500;fill-opacity:1;fill-rule:nonzero;stroke:#d45500;stroke-width:0.73825371;stroke-linecap:round;stroke-linejoin:miter;stroke-miterlimit:4;stroke-opacity:1;stroke-dashoffset:0"
     d="m 213.16142,32.426858 341.7693,-0.117385 0.65094,3.105491 -340.08326,0.07469 z"
     id="rect3933"
     inkscape:connector-curvature="0"
     sodipodi:nodetypes="ccccc" />
  <path
     style="fill:#ff0000;fill-opacity:1;fill-rule:nonzero;stroke:#ff0000;stroke-width:0.75378233;stroke-linecap:round;stroke-linejoin:miter;stroke-miterlimit:4;stroke-opacity:1;stroke-dashoffset:0"
     d="m 226.65662,123.93852 280.90529,-1.82728 0.0906,3.22788 -281.01093,0.30668 z"
     id="rect3933-8-2"
     inkscape:connector-curvature="0"
     sodipodi:nodetypes="ccccc" />
  <path
     style="fill:#d45500;fill-opacity:1;fill-rule:nonzero;stroke:#d45500;stroke-width:0.68432683;stroke-linecap:round;stroke-linejoin:miter;stroke-miterlimit:4;stroke-opacity:1;stroke-dashoffset:0"
     d="m 226.59121,125.48653 280.9969,-1.59968 -0.0302,3.29833 -281.04218,1.53931 z"
     id="rect3933-8"
     inkscape:connector-curvature="0"
     sodipodi:nodetypes="ccccc" />
  <text
     xml:space="preserve"
     style="font-size:27.96665955px;font-style:normal;font-variant:normal;font-weight:normal;font-stretch:normal;line-height:125%;letter-spacing:-1.28180516px;word-spacing:0px;fill:#000072;fill-opacity:1;stroke:#000072;stroke-width:1.16527748;stroke-opacity:1;font-family:Arial;-inkscape-font-specification:Arial"
     x="244.45291"
     y="74.062508"
     id="text3989"
     sodipodi:linespacing="125%"><tspan
       sodipodi:role="line"
       id="tspan3991"
       x="244.45291"
       y="74.062508"
       style="stroke-width:1.16527748">TAWES BROTHERS</tspan></text>
  <text
     xml:space="preserve"
     style="font-size:15.59364796px;font-style:normal;font-variant:normal;font-weight:normal;font-stretch:normal;line-height:125%;letter-spacing:-0.71470892px;word-spacing:0px;fill:#d45500;fill-opacity:1;stroke:#d45500;stroke-width:0.64973539;stroke-opacity:1;font-family:Arial;-inkscape-font-specification:Arial"
     x="278.48126"
     y="105.44666"
     id="text3989-5"
     sodipodi:linespacing="125%"><tspan
       sodipodi:role="line"
       id="tspan3991-5"
       x="278.48126"
       y="105.44666"
       style="fill:#d45500;stroke:#d45500;stroke-width:0.64973539">PETROLEUM PRODUCTS</tspan></text>
  <path
     style="fill:#d45500;fill-opacity:1;stroke:none"
     d="m 226.38665,129.05824 -2.49494,0.0233 2.75849,-3.40944 z"
     id="path4016"
     inkscape:connector-curvature="0" />
  <path
     style="fill:#d45500;stroke:none;stroke-width:1px;stroke-linecap:butt;stroke-linejoin:miter;stroke-opacity:1;fill-opacity:1"
     d="m 215.38679,35.789009 -0.0747,0.0747 -3.71356,-1.46195 0.81101,-2.347656 1.40859,0.234766 1.78208,2.304971 z"
     id="path4022"
     inkscape:connector-curvature="0" />
  <g
     id="g4054"
     transform="matrix(0.00866266,0,0,-0.00866266,517.64339,76.548112)"
     style="fill:#ff0000;stroke:none">
    <path
       id="path4056"
       d="M 1000,2995 5,2000 1003,1002 2000,5 l 997,997 998,998 -995,995 c -547,547 -997,995 -1000,995 -3,0 -453,-448 -1000,-995 z m 1905,-95 900,-900 -903,-903 -902,-902 -902,902 -903,903 900,900 c 495,495 902,900 905,900 3,0 410,-405 905,-900 z"
       inkscape:connector-curvature="0"
       style="fill:#ff0000" />
    <path
       id="path4058"
       d="m 1135,2860 -860,-860 863,-863 862,-862 862,862 863,863 -860,860 c -473,473 -862,860 -865,860 -3,0 -392,-387 -865,-860 z m 936,510 c 42,-93 42,-94 35,-182 -4,-64 -3,-87 5,-82 19,11 49,87 49,124 0,19 5,42 10,50 8,13 11,12 24,-5 8,-11 18,-40 22,-64 7,-45 -1,-175 -12,-205 -10,-27 13,-18 50,19 31,33 41,51 61,110 l 6,20 16,-20 c 20,-27 12,-110 -20,-203 -14,-39 -21,-72 -17,-72 11,0 54,58 65,85 7,19 7,19 16,-4 13,-34 -6,-136 -35,-186 -45,-75 -143,-144 -231,-161 l -40,-7 34,38 c 40,46 66,103 76,164 l 7,43 -37,-41 c -39,-43 -62,-54 -50,-23 3,9 9,30 12,46 l 6,30 -32,-23 c -18,-13 -34,-22 -36,-20 -2,2 4,31 12,64 17,66 8,132 -23,180 -26,40 -37,31 -30,-22 19,-136 19,-142 2,-149 -24,-9 -37,7 -43,55 -7,50 -19,53 -31,7 -7,-24 -6,-57 5,-111 17,-91 13,-112 -9,-59 -60,140 -60,140 -68,119 -5,-11 -6,-37 -3,-59 6,-41 5,-41 -54,-19 -7,3 -13,0 -13,-5 0,-15 91,-140 135,-184 l 36,-38 -29,0 c -41,0 -146,55 -178,93 -37,44 -68,117 -88,208 -9,42 -23,85 -31,95 -37,49 -4,45 57,-7 26,-22 48,-38 48,-35 0,2 7,37 15,76 13,63 13,75 0,107 -18,42 -18,43 -5,43 5,0 28,-18 51,-41 22,-22 43,-39 45,-36 2,2 11,39 19,81 14,73 14,79 -4,115 -11,20 -27,43 -35,50 -16,13 -22,41 -10,41 9,0 89,-64 135,-107 30,-29 37,-32 43,-18 3,9 -1,30 -9,46 -41,77 -39,207 3,269 l 17,25 6,-61 c 5,-38 23,-96 50,-154 z m 269,-845 0,-25 -315,0 -315,0 0,25 0,25 315,0 315,0 0,-25 z m 740,-620 0,-495 -1075,0 -1075,0 0,495 0,495 1075,0 1075,0 0,-495 z M 2067,1009 c 82,-31 110,-115 57,-170 -26,-27 -26,-27 -5,-34 26,-8 51,-54 51,-92 0,-45 -36,-92 -87,-115 -37,-16 -60,-20 -119,-16 -98,7 -141,37 -159,111 -7,27 -7,27 43,27 45,0 52,-3 64,-27 31,-64 148,-48 148,21 0,31 -27,53 -77,61 -39,6 -43,9 -43,36 0,26 3,29 31,29 45,0 69,16 69,48 0,34 -9,47 -38,57 -37,11 -68,-2 -82,-35 -11,-28 -16,-30 -62,-30 -50,0 -50,0 -44,28 10,40 38,75 77,94 39,20 132,24 176,7 z"
       inkscape:connector-curvature="0"
       style="fill:#ff0000" />
  </g>
  <rect
     style="fill:none;stroke:#000000;stroke-width:0.69999999;stroke-linecap:round;stroke-linejoin:miter;stroke-miterlimit:4;stroke-opacity:1;stroke-dasharray:none;stroke-dashoffset:0"
     id="rect4081"
     width="0.24146089"
     height="45.515377"
     x="312.32968"
     y="134.56816" />
  <rect
     style="fill:#000000;fill-opacity:1;fill-rule:nonzero;stroke:#000000;stroke-width:0.77642756999999984;stroke-linecap:round;stroke-linejoin:miter;stroke-miterlimit:4;stroke-opacity:1;stroke-dasharray:none;stroke-dashoffset:0"
     id="rect4083"
     width="33.609158"
     height="23.305824"
     x="160.77678"
     y="164.7287" />
  <rect
     style="fill:#ff0000;fill-opacity:1;fill-rule:nonzero;stroke:none;stroke-width:0.89999998;stroke-linecap:round;stroke-linejoin:miter;stroke-miterlimit:4;stroke-dasharray:none;stroke-dashoffset:0;stroke-opacity:1"
     id="rect4085"
     width="3.4125788"
     height="13.823636"
     x="583.94196"
     y="160.40448" />
  <path
     style="fill:#ffffff;stroke:none;stroke-width:0.038;stroke-linecap:butt;stroke-linejoin:round;stroke-miterlimit:4;stroke-dasharray:none;stroke-opacity:1"
     d="m 583.93907,166.55736 3.41314,-2.4156 -0.003,4.5532 -3.41912,2.34889 z"
     id="path4087"
     inkscape:connector-curvature="0"
     sodipodi:nodetypes="ccccc" />
  <text
     xml:space="preserve"
     style="font-style:normal;font-variant:normal;font-weight:normal;font-stretch:normal;font-size:4.7213459px;line-height:102.99999714%;font-family:Arial;-inkscape-font-specification:Arial;text-align:center;letter-spacing:0.01889227px;word-spacing:0px;text-anchor:middle;fill:#000072;fill-opacity:1;stroke:#000072;stroke-width:0.18892264;stroke-miterlimit:4;stroke-dasharray:none;stroke-opacity:1"
     x="159.97044"
     y="106.55109"
     id="text4089"
     sodipodi:linespacing="103%"><tspan
       sodipodi:role="line"
       x="159.97989"
       y="106.55109"
       id="tspan4093"
       style="stroke-width:0.18892264">TAWES BROTHERS</tspan><tspan
       sodipodi:role="line"
       x="159.97989"
       y="111.41407"
       style="stroke-width:0.18892264"
       id="tspan4210">OIL COMPANY, INC.</tspan><tspan
       sodipodi:role="line"
       x="159.97989"
       y="116.27706"
       id="tspan4095"
       style="stroke-width:0.18892264">907 W. MAIN ST.</tspan><tspan
       sodipodi:role="line"
       x="159.97989"
       y="121.14005"
       id="tspan4097"
       style="stroke-width:0.18892264">CRISFIELD, MD 21817</tspan><tspan
       sodipodi:role="line"
       x="159.97989"
       y="126.00303"
       id="tspan4099"
       style="stroke-width:0.18892264">(410) 968-0678</tspan></text>
  <rect
     style="fill:#dcdcdc;fill-opacity:1;fill-rule:nonzero;stroke:#000023;stroke-width:0.483;stroke-linecap:round;stroke-linejoin:miter;stroke-miterlimit:4;stroke-opacity:1;stroke-dasharray:none;stroke-dashoffset:0"
     id="rect4101"
     width="9.9616537"
     height="1.2805398"
     x="177.93622"
     y="91.140343" />
  <text
     xml:space="preserve"
     style="font-size:5.75550318px;font-style:normal;font-variant:normal;font-weight:normal;font-stretch:normal;line-height:125%;letter-spacing:0px;word-spacing:0px;fill:#cccccc;fill-opacity:1;stroke:#999999;stroke-width:0.28496051;stroke-miterlimit:4;stroke-dasharray:none;font-family:Borghs;-inkscape-font-specification:Borghs"
     x="40.274574"
     y="101.3423"
     id="text4103"
     sodipodi:linespacing="125%"
     transform="scale(0.94986836,1.0527775)"><tspan
       sodipodi:role="line"
       id="tspan4105"
       x="40.274574"
       y="101.3423"
       style="stroke-width:0.28496051">BRIGADIER</tspan></text>
  <rect
     style="fill:#ff0000;fill-opacity:1;fill-rule:nonzero;stroke:#cccccc;stroke-width:0.26448819;stroke-linecap:round;stroke-linejoin:miter;stroke-miterlimit:4;stroke-opacity:1;stroke-dasharray:none;stroke-dashoffset:0"
     id="rect4107"
     width="4.3275118"
     height="4.3275118"
     x="31.478041"
     y="102.38823" />
  <path
     sodipodi:type="star"
     style="fill:#cccccc;fill-opacity:1;fill-rule:nonzero;stroke:none"
     id="path4109"
     sodipodi:sides="5"
     sodipodi:cx="79.308098"
     sodipodi:cy="106.76293"
     sodipodi:r1="1.5792807"
     sodipodi:r2="0.76509494"
     sodipodi:arg1="0.97590208"
     sodipodi:arg2="1.592731"
     inkscape:flatsided="false"
     inkscape:rounded="0.07"
     inkscape:randomized="0"
     d="m 80.19316,108.0709 c -0.06055,0.042 -0.828193,-0.54059 -0.901843,-0.54306 -0.07473,-0.002 -0.894165,0.52629 -0.953676,0.48102 -0.05865,-0.0446 0.258215,-0.95471 0.237798,-1.02552 -0.02072,-0.0718 -0.776837,-0.68777 -0.752179,-0.75835 0.0243,-0.0696 0.987779,-0.0495 1.04881,-0.0907 0.06192,-0.0419 0.414054,-0.95135 0.488804,-0.94971 0.07367,0.002 0.352267,0.92416 0.410403,0.96944 0.05899,0.0459 1.032736,0.0998 1.054276,0.1714 0.02123,0.0706 -0.770066,0.62061 -0.795167,0.68989 -0.02547,0.0703 0.224212,1.01303 0.162774,1.05564 z"
     inkscape:transform-center-x="-0.0080638555"
     inkscape:transform-center-y="-0.14387421"
     transform="matrix(1.0352197,-0.02478853,0.02465961,1.0406316,-51.09709,-4.4922424)" />
  <path
     sodipodi:type="arc"
     style="fill:#d45500;fill-opacity:1;fill-rule:nonzero;stroke:#ff8a3c;stroke-width:0.30000001;stroke-linecap:round;stroke-linejoin:miter;stroke-miterlimit:4;stroke-opacity:1;stroke-dasharray:none;stroke-dashoffset:0"
     id="path4119"
     sodipodi:cx="240.43469"
     sodipodi:cy="26.454046"
     sodipodi:rx="3.9237394"
     sodipodi:ry="1.3884002"
     d="m 244.35843,26.454046 a 3.9237394,1.3884002 0 1 1 -7.84748,0 3.9237394,1.3884002 0 1 1 7.84748,0 z"
     transform="matrix(0.59008014,0,0,1.5008657,75.063008,93.832683)" />
  <path
     sodipodi:type="arc"
     style="fill:#d45500;fill-opacity:1;fill-rule:nonzero;stroke:#ff8a3c;stroke-width:0.30000001;stroke-linecap:round;stroke-linejoin:miter;stroke-miterlimit:4;stroke-opacity:1;stroke-dasharray:none;stroke-dashoffset:0"
     id="path4119-1"
     sodipodi:cx="240.43469"
     sodipodi:cy="26.454046"
     sodipodi:rx="3.9237394"
     sodipodi:ry="1.3884002"
     d="m 244.35843,26.454046 a 3.9237394,1.3884002 0 1 1 -7.84748,0 3.9237394,1.3884002 0 1 1 7.84748,0 z"
     transform="matrix(0.59008014,0,0,1.5008657,423.10877,59.533585)" />
  <path
     sodipodi:type="arc"
     style="fill:#d40000;fill-opacity:1;fill-rule:nonzero;stroke:#ff3c3c;stroke-width:0.30000001;stroke-linecap:round;stroke-linejoin:miter;stroke-miterlimit:4;stroke-opacity:1;stroke-dasharray:none;stroke-dashoffset:0"
     id="path4119-7"
     sodipodi:cx="240.43469"
     sodipodi:cy="26.454046"
     sodipodi:rx="3.9237394"
     sodipodi:ry="1.3884002"
     d="m 244.35843,26.454046 a 3.9237394,1.3884002 0 1 1 -7.84748,0 3.9237394,1.3884002 0 1 1 7.84748,0 z"
     transform="matrix(0.59008014,0,0,1.5008657,75.122709,99.967571)" />
  <path
     sodipodi:type="arc"
     style="fill:#d40000;fill-opacity:1;fill-rule:nonzero;stroke:#ff3c3c;stroke-width:0.30000001;stroke-linecap:round;stroke-linejoin:miter;stroke-miterlimit:4;stroke-opacity:1;stroke-dasharray:none;stroke-dashoffset:0"
     id="path4119-7-1"
     sodipodi:cx="240.43469"
     sodipodi:cy="26.454046"
     sodipodi:rx="3.9237394"
     sodipodi:ry="1.3884002"
     d="m 244.35843,26.454046 a 3.9237394,1.3884002 0 1 1 -7.84748,0 3.9237394,1.3884002 0 1 1 7.84748,0 z"
     transform="matrix(0.59008014,0,0,1.5008657,424.19356,65.418001)" />
  <path
     style="fill:#dcdcdc;fill-opacity:1;stroke:#000000;stroke-width:1px;stroke-linecap:butt;stroke-linejoin:miter;stroke-opacity:1"
     d="m 392.07161,166.27382 15.86559,-14.99977 41.04835,0 15.38518,14.99977 8.27799,0 -21.73148,-21.1046 -45.39465,0 -20.76564,21.1046 z"
     id="path4167"
     inkscape:connector-curvature="0"
     sodipodi:nodetypes="ccccccccc" />
  <text
     xml:space="preserve"
     style="font-style:normal;font-variant:normal;font-weight:bold;font-stretch:normal;font-size:8.34323215px;line-height:125%;font-family:'Segoe UI';-inkscape-font-specification:'Segoe UI Bold';letter-spacing:0px;word-spacing:0px;fill:#000000;fill-opacity:1;stroke:none;stroke-width:1px;stroke-linecap:butt;stroke-linejoin:miter;stroke-opacity:1"
     x="525.578"
     y="63.018314"
     id="text4224"
     sodipodi:linespacing="125%"><tspan
       sodipodi:role="line"
       id="tspan4226"
       x="525.578"
       y="63.018314"
       style="font-style:normal;font-variant:normal;font-weight:bold;font-stretch:normal;font-family:Arial;-inkscape-font-specification:'Arial Bold'">1223</tspan></text>
</svg>
