<?xml version="1.0" encoding="UTF-8" standalone="no"?>
<!-- Generator: Adobe Illustrator 21.0.0, SVG Export Plug-In . SVG Version: 6.00 Build 0)  -->

<svg
   xmlns:dc="http://purl.org/dc/elements/1.1/"
   xmlns:cc="http://creativecommons.org/ns#"
   xmlns:rdf="http://www.w3.org/1999/02/22-rdf-syntax-ns#"
   xmlns:svg="http://www.w3.org/2000/svg"
   xmlns="http://www.w3.org/2000/svg"
   xmlns:sodipodi="http://sodipodi.sourceforge.net/DTD/sodipodi-0.dtd"
   xmlns:inkscape="http://www.inkscape.org/namespaces/inkscape"
   version="1.1"
   id="svg2"
   inkscape:export-filename="C:\Users\Jack\Documents\GitHub\jack\images\logo.png"
   inkscape:export-xdpi="180.32433"
   inkscape:export-ydpi="180.32433"
   inkscape:version="0.92.4 (5da689c313, 2019-01-14)"
   sodipodi:docname="logo.svg"
   x="0px"
   y="0px"
   viewBox="0 0 344 111"
   style="enable-background:new 0 0 344 111;"
   xml:space="preserve"><metadata
   id="metadata7"><rdf:RDF><cc:Work
       rdf:about=""><dc:format>image/svg+xml</dc:format><dc:type
         rdf:resource="http://purl.org/dc/dcmitype/StillImage" /></cc:Work></rdf:RDF></metadata><defs
   id="defs5" />
<sodipodi:namedview
   bordercolor="#666666"
   borderopacity="1"
   gridtolerance="10"
   guidetolerance="10"
   id="namedview34"
   inkscape:current-layer="svg2"
   inkscape:cx="174.39189"
   inkscape:cy="52.000477"
   inkscape:pageopacity="0"
   inkscape:pageshadow="2"
   inkscape:window-height="1369"
   inkscape:window-maximized="1"
   inkscape:window-width="2560"
   inkscape:window-x="-8"
   inkscape:window-y="-8"
   inkscape:zoom="3.224784"
   objecttolerance="10"
   pagecolor="#ffffff"
   showgrid="false">
	</sodipodi:namedview>
<path
   id="path3733-1"
   inkscape:connector-curvature="0"
   d="M48.4,6.7c-2.2,0-4.4,0-6.6,0.1c-2,0-4.1,0-6.1,0.1c-0.7,0-1.5,0-2.2,0  c-0.2,0-0.3,0-0.5,0c-0.7,0-1.5,0-2.2,0c-1.6,0.2-3.3,0.4-5,0.5c-2.4,0.2-4.8,0.3-7.2,0.6c0,0,0,0-0.1,0c-3.4,0.4-6.7,1-9.8,2.3  c0,0,0,0,0,0c-0.2,0.1-0.4,0.2-0.6,0.3c0,0,0,0,0,0c-0.1,0-0.2,0.1-0.3,0.2C7.1,11.2,6.5,11.6,6,12c0,0,0,0,0,0  c-0.7,0.6-1.3,1.2-1.9,1.9c-0.2,0.6-0.4,1.2-0.6,1.8c-0.9,2.4-1.3,5.1-1.7,7.5c-0.1,1.1-0.2,2.2-0.3,3.4c0,0,0,0,0,0  c-0.2,2-0.2,4-0.2,6c0,5.3,0.4,10.5,1.5,15.7c0.1,0.4,0.1,0.9,0.2,1.3c0,0.6,0.2,1.1,0.5,1.6c0,0.1,0,0.1,0.1,0.2  c0,0,0.1,0.1,0.1,0.1c0.5,0.8,1.3,1.4,2,2c0.5,0.6,0.9,1.1,1.3,1.8c0.5,1.3,1,2.5,1.5,3.8c0,0.1,0,0.1,0.1,0.2c0,0,0,0,0,0.1  c0.1,0.2,0.1,0.3,0.2,0.5c0.8,2.1,1.5,4.2,2.3,6.4c0.8,2.2,1.5,4.5,2.4,6.7c0,0,0,0,0,0.1c0.1,0.4,0.3,0.8,0.5,1.1  c0.1,0.2,0.2,0.4,0.3,0.6c1.3,1.2,2.7,2.2,4.3,3c0,0,0,0,0,0c0.3,0.2,0.6,0.3,0.8,0.5c0.3,0.1,0.5,0.1,0.8,0.2  c2.6,1.1,5.4,1.8,8,2.7c18.8,4.6,38.1,6.5,57.4,6.7c12.8,0.1,25.6,0.1,38.2-2.5c0.7-0.1,1.4-0.3,2.1-0.5c0,0,0,0,0,0  c0,0,0.1,0,0.1,0c1-0.2,1.9-0.5,2.8-0.9c1.5-0.5,3-1,4.3-1.8c0.5-0.3,1-0.5,1.5-0.8c0.4-0.8,0.7-1.5,1.1-2.3c1-1.8,1.8-3.7,2.6-5.6  c1.1-2.4,2.3-4.8,3.3-7.3c1.1-2.5,2.2-4.9,3.5-7.3c0.4-0.2,0.8-0.4,1.2-0.5c0.6-0.2,1.3-0.5,1.9-0.7c0.4-1.1,0.7-2.2,1.1-3.3  c0.5-1.5,1-2.9,1.5-4.4c0.1-0.3,0.2-0.6,0.3-0.9c0.1-0.3,0.2-0.7,0.2-1c0,0,0,0,0,0c0.3-1.2,0.6-2.4,0.8-3.6  c0.1-0.5,0.2-1.1,0.3-1.6c0.2-0.5,0.5-1.1,0.7-1.6c0.5-0.2,0.9-0.5,1.4-0.7c5.4-2.3,11.2-4.1,17.1-4.1c5.9,0,11.7,1.8,17.2,4.1  c0,0,0,0,0,0c0.5,0.2,0.9,0.5,1.4,0.7c0.2,0.4,0.5,1.1,0.7,1.6c0.1,0.5,0.2,1.1,0.3,1.6c0.2,1.2,0.5,2.4,0.8,3.6c0,0,0,0,0,0  c0.1,0.3,0.2,0.7,0.2,1c0.1,0.3,0.2,0.6,0.3,0.9c0.4,1.5,0.9,3,1.5,4.4c0.4,1.1,0.7,2.2,1.1,3.3c0.6,0.2,1.3,0.5,1.9,0.7  c0.4,0.2,0.8,0.3,1.2,0.5c1.2,2.4,2.4,4.9,3.5,7.3c1.1,2.4,2.2,4.9,3.3,7.3c0.8,1.9,1.6,3.7,2.6,5.5c0.4,0.8,0.7,1.5,1.1,2.3  c0.5,0.3,1,0.5,1.5,0.8c1.3,0.8,2.8,1.4,4.3,1.8c0.9,0.3,1.9,0.6,2.8,0.9c0,0,0.1,0,0.1,0c0,0,0,0,0,0c0.7,0.2,1.4,0.3,2.1,0.5  c12.6,2.6,25.4,2.6,38.2,2.5c19.3-0.3,38.7-2.1,57.4-6.7c2.6-0.8,5.4-1.6,8-2.7c0.3-0.1,0.5-0.1,0.8-0.2c0.3-0.2,0.5-0.4,0.8-0.5  c0,0,0,0,0,0c1.6-0.8,3-1.7,4.3-3c0.1-0.2,0.2-0.4,0.3-0.6c0.2-0.3,0.4-0.7,0.5-1.1c0,0,0,0,0,0c0.9-2.2,1.7-4.5,2.4-6.7  c0.8-2.1,1.5-4.2,2.3-6.4c0.1-0.2,0.1-0.4,0.2-0.5c0,0,0,0,0-0.1c0-0.1,0-0.1,0.1-0.2c0.5-1.3,1-2.5,1.5-3.8  c0.4-0.6,0.8-1.2,1.3-1.8c0.7-0.6,1.5-1.3,2-2c0.1,0,0.1-0.1,0.1-0.1c0-0.1,0-0.1,0.1-0.2c0.3-0.5,0.4-1,0.5-1.6  c0.1-0.4,0.2-0.9,0.2-1.3c1.1-5.2,1.5-10.5,1.5-15.8c0-2-0.1-3.9-0.2-5.8c0,0,0,0,0,0c-0.1-1.1-0.2-2.2-0.3-3.4  c-0.4-2.4-0.8-5.1-1.7-7.5c-0.2-0.6-0.4-1.2-0.6-1.8c-0.6-0.7-1.2-1.4-1.9-2c-0.5-0.4-1-0.8-1.6-1.1c-0.1-0.1-0.2-0.1-0.3-0.2  c0,0,0,0,0,0c-0.2-0.1-0.4-0.2-0.7-0.3c0,0,0,0,0,0c-3.2-1.3-6.5-1.9-9.8-2.3c0,0,0,0-0.1,0c-2.4-0.3-4.8-0.5-7.2-0.6  c-1.7-0.1-3.3-0.3-5-0.5c-0.7,0-1.5,0-2.2,0c-0.2,0-0.3,0-0.5,0c-0.7,0-1.5,0-2.2,0c-2,0-4.1-0.1-6.1-0.1c-2.2,0-4.4-0.1-6.6-0.1  c-2.9,0-5.8,0-8.7,0.2c-1.3,0-2.6,0.1-4,0.1c-1.5,0.3-3,0.4-4.5,0.5c-2.4,0.1-4.8,0.1-7.2,0.2c-0.1,0-0.2,0-0.3,0  c-1.4,0-2.8,0.1-4.3,0.3c-1,0.1-2,0.2-3,0.4c-3.8,0.3-7.6,0.6-11.4,1c-0.6,0.1-1.1,0.1-1.7,0.2c-11.3,1.2-22.5,2.8-33.6,5.2  c0,0-0.1,0-0.1,0c-2.2,0.5-4.5,1-6.7,1.5c-0.5,0.1-1,0.3-1.6,0.4c0,0,0,0,0,0c-0.7,0.2-1.3,0.3-2,0.5c-1,0.3-2,0.6-3,0.9  c-0.3,0.1-0.6,0.2-0.9,0.3c-0.1,0-0.2,0.1-0.3,0.1c-0.1,0-0.3,0.1-0.4,0.1c-0.8,0.3-1.5,0.5-2.3,0.8c-0.6,0.2-1.1,0.4-1.6,0.7  c-0.2,0.1-0.5,0.2-0.7,0.3c-1.8,0.9-3.7,2-5.2,3.4c0,0,0,0,0,0c-0.6,0.5-1.2,1.1-1.7,1.7c0,0.2-0.1,0.5-0.1,0.7  c-0.4,0.7-0.6,1.5-0.8,2.3c-0.5,0.3-1.5,0.8-2.1,1.1c-1.1,0.2-2.2,0.4-3.3,0.5c-1.8,0.3-3.7,0.5-5.5,0.6c-2.2,0.1-4.4,0.2-6.6,0.2  c-2.2,0-4.4-0.1-6.6-0.2c-1.9-0.1-3.7-0.3-5.5-0.6c-1.1-0.2-2.2-0.4-3.3-0.5c-0.5-0.3-1.5-0.8-2.1-1.1c-0.2-0.8-0.4-1.6-0.8-2.3  c0-0.2-0.1-0.5-0.1-0.7c-0.5-0.6-1.1-1.2-1.7-1.7c0,0,0,0,0,0c0,0,0,0,0,0c-1.5-1.4-3.3-2.5-5.2-3.4c-0.2-0.1-0.5-0.2-0.7-0.3  c-0.5-0.2-1.1-0.5-1.6-0.7c-0.8-0.3-1.5-0.5-2.3-0.8c-0.1,0-0.3-0.1-0.4-0.1c-0.1,0-0.2-0.1-0.3-0.1c-0.3-0.1-0.6-0.2-0.9-0.3  c-1-0.3-2-0.6-3-0.9c-0.6-0.2-1.3-0.3-1.9-0.5c0,0,0,0-0.1,0c-0.5-0.1-1.1-0.3-1.6-0.4c-2.2-0.5-4.4-1-6.7-1.5c0,0-0.1,0-0.1,0  c-11.1-2.4-22.3-4-33.6-5.2c-0.2,0-0.3,0-0.5-0.1c-0.4,0-0.8-0.1-1.2-0.1C87.8,9,84,8.6,80.2,8.4c-1-0.2-2-0.3-3-0.4  c-1.4-0.2-2.8-0.2-4.3-0.3c-0.1,0-0.2,0-0.3,0c-2.4-0.1-4.8-0.1-7.2-0.2C64,7.4,62.5,7.3,61,7c-1.3,0-2.6-0.1-4-0.1  C54.1,6.8,51.3,6.7,48.4,6.7L48.4,6.7z M33.9,17.8c2.5,0.1,4.9,0,7.4,0c3.1,0.1,6.2,0.2,9.3,0.4c0.7,0.1,1.4,0.2,2.1,0.3  c2.2,0.2,4.4,0.2,6.7,0.3c1.9,0.1,3.8,0.3,5.6,0.4c0.6,0.1,1.1,0.2,1.7,0.3c1.3,0.1,2.7,0.2,4,0.2c1.8,0.2,3.6,0.4,5.3,0.6  c0,0,0,0,0,0c0.2,0,0.4,0.1,0.6,0.1c2.4,0.2,4.9,0.5,7.3,0.8c5.1,0.7,10.1,1.4,15.1,2.3c0.1,0,0.2,0,0.3,0.1  c7.2,1.3,14.4,2.8,21.6,4.5c1.8,0.4,3.6,0.9,5.4,1.4c1.1,0.3,2.1,0.6,3.2,0.9c0.6,0.2,1.2,0.3,1.7,0.5c0.6,0.2,1.2,0.3,1.8,0.5  c0.7,0.2,1.4,0.5,2.2,0.7c2.6,0.9,5.3,1.8,7.8,2.8c0.6,0.3,1.2,0.6,1.8,0.9c0.5,0.8,0.9,1.6,1.1,2.5c0.3,1.2,0.6,2.5,0.7,3.7  c0.1,1.4,0.1,2.8,0.1,4.2c-0.1,1.3-0.2,2.6-0.4,3.9c0,0,0,0.1,0,0.1c0,0,0,0,0,0c-0.1,0.8-0.3,1.5-0.5,2.3c0,0,0,0,0,0  c-0.5,1.6-1.3,3-2.8,4.1c-2.5,5.5-4.7,11.1-7.1,16.7c0,0.1-0.1,0.1-0.1,0.2c-1,2.3-2,4.6-3.2,6.9c-9.1,4-19.2,4.7-29,5.4  c-21.8,1.6-43.6-0.6-65.1-4.5c-1.3-0.4-2.7-0.7-4-1c-1.3-0.3-2.7-0.6-4-0.9c-1.3-0.4-2.6-0.7-3.9-1c-2-0.8-4.1-1.4-6.1-2.3  c-1.3-0.6-2.7-1.3-4-2c-0.3-0.2-0.7-0.4-1-0.7c-0.6-1.5-1.1-3-1.6-4.5c0,0,0,0,0,0c-1.4-4.7-2.9-9.5-4.6-14.1  c-0.2-0.9-0.3-1.8-0.5-2.6c-0.4-0.6-0.8-1.3-1.3-1.9c-0.4-0.9-0.7-1.7-1.1-2.6c-0.4-5-0.4-9.9,0-14.9c0.1-0.4,0.1-0.8,0.2-1.2  c0.3-1.1,0.6-2.2,0.8-3.3c0.5-1.8,1.1-3.5,1.8-5.2c0.6-1.2,1.4-2.3,2.5-3.1c0,0,0,0,0,0c1.5-0.9,3.5-1.1,5.4-1.3  c0.6-0.1,1.2-0.1,1.9-0.2c0.5-0.1,1-0.2,1.5-0.3c2.8-0.2,5.6-0.4,8.5-0.5C30.8,17.8,32.4,17.8,33.9,17.8L33.9,17.8z M309.8,17.8  c1.6,0,3.2,0,4.7,0c2.8,0.1,5.6,0.2,8.5,0.5c0.5,0.1,1,0.2,1.5,0.3c0.6,0,1.2,0.1,1.9,0.2c1.9,0.2,3.9,0.4,5.4,1.3c0,0,0,0,0,0  c1.1,0.8,1.9,1.8,2.5,3c0.7,1.7,1.3,3.4,1.8,5.2c0.2,1.1,0.5,2.2,0.8,3.3c0.1,0.4,0.1,0.8,0.2,1.2c0.4,5,0.4,9.9,0,14.9  c-0.4,0.9-0.8,1.7-1.1,2.6c-0.4,0.6-0.9,1.3-1.3,1.9c-0.2,0.9-0.3,1.8-0.5,2.6c-1.7,4.7-3.2,9.5-4.6,14.2c-0.5,1.5-1,3-1.6,4.4  c-0.3,0.2-0.6,0.5-1,0.7c-1.3,0.7-2.7,1.4-4,2c-2,0.8-4.1,1.5-6.1,2.3c-1.3,0.3-2.6,0.6-3.9,1c-1.3,0.3-2.7,0.6-4,0.9  c-1.4,0.3-2.7,0.6-4,1c-21.4,3.9-43.3,6.1-65.1,4.5c-9.8-0.8-19.9-1.5-29-5.4c-1.1-2.3-2.2-4.7-3.2-7.1c-2.3-5.6-4.6-11.2-7.1-16.7  c-1.5-1-2.3-2.4-2.8-4c0,0,0,0,0-0.1c-0.2-0.8-0.4-1.5-0.5-2.3c0,0,0-0.1,0-0.1c-0.2-1.3-0.3-2.7-0.4-3.9c0-1.4,0-2.8,0.1-4.2  c0.1-1.3,0.4-2.5,0.7-3.7c0.3-0.9,0.6-1.7,1.1-2.5c0.6-0.3,1.2-0.6,1.8-0.9c2.6-1,5.2-2,7.8-2.8c0.7-0.2,1.4-0.5,2.2-0.7  c0.6-0.2,1.2-0.3,1.7-0.5c0.6-0.2,1.2-0.3,1.8-0.5c1-0.3,2.1-0.6,3.2-0.9c1.8-0.5,3.6-0.9,5.4-1.4c7.2-1.7,14.4-3.3,21.6-4.6  c0.1,0,0.2,0,0.2,0c5.1-0.9,10.1-1.7,15.2-2.3c2.4-0.3,4.9-0.6,7.3-0.8c0.2,0,0.4-0.1,0.6-0.1c0,0,0,0,0,0c1.8-0.2,3.6-0.4,5.3-0.6  c1.3-0.1,2.7-0.1,4-0.2c0.6-0.1,1.1-0.2,1.7-0.3c1.9-0.1,3.8-0.3,5.6-0.4c2.2-0.1,4.4-0.1,6.7-0.3c0.7-0.1,1.4-0.2,2.1-0.3  c3.1-0.2,6.2-0.3,9.3-0.4C304.9,17.8,307.3,17.8,309.8,17.8L309.8,17.8z" />
<g
   aria-label="SPECX"
   style="font-style:normal;font-variant:normal;font-weight:normal;font-stretch:normal;font-size:31.77419662px;line-height:1.25;font-family:'ITC Zapf Chancery Light';-inkscape-font-specification:'ITC Zapf Chancery Light, ';letter-spacing:0px;word-spacing:0px;fill:#009999;fill-opacity:1;stroke:#009999;stroke-width:0.794;stroke-miterlimit:4;stroke-dasharray:none;stroke-opacity:1"
   id="text816"><path
     d="m 36.186969,69.707285 -2.528903,4.980233 -0.434413,-0.248236 q 0.01552,-0.155147 0.01552,-0.248236 0,-0.527501 -0.899855,-1.132576 -2.761625,-1.923828 -6.485164,-1.923828 -1.644563,0 -2.901257,0.403383 -0.91537,0.310295 -1.489415,0.930885 -0.558531,0.620589 -0.558531,1.349782 0,1.194636 1.442871,1.629049 0.744708,0.217206 3.196038,0.465442 l 2.435814,0.248236 q 2.172065,0.232721 3.506333,0.636104 1.349782,0.403384 2.38927,1.132577 1.055003,0.760222 1.660078,2.001402 0.62059,1.241179 0.62059,2.653021 0,2.234123 -1.442872,3.971775 -1.303238,1.582503 -4.049348,2.342726 -2.047946,0.574046 -4.390672,0.574046 -4.204496,0 -8.300389,-2.016917 -0.868825,-0.403384 -1.039488,-0.403384 -0.201691,0 -0.636104,0.341325 l -0.449928,-0.232721 2.296182,-5.19744 0.449928,0.217207 q 0,0.139632 0,0.201691 0,0.698164 0.667134,1.287724 1.008458,0.899855 3.118464,1.551475 2.110005,0.651619 4.002804,0.651619 2.063461,0 3.521847,-0.698164 0.806766,-0.387868 1.287723,-1.023973 0.480958,-0.651619 0.480958,-1.349783 0,-1.055002 -1.132577,-1.50493 -0.791252,-0.310295 -3.196037,-0.574045 l -2.389271,-0.248236 q -2.404785,-0.248236 -3.397729,-0.465443 -0.992943,-0.232721 -1.985887,-0.729193 -1.411842,-0.698163 -2.218609,-2.09449 -0.729193,-1.256694 -0.729193,-2.885743 0,-2.68405 1.846255,-4.437216 2.4203,-2.311697 7.2609,-2.311697 2.032432,0 3.785598,0.418898 1.753166,0.403383 4.375158,1.50493 0.899855,0.356839 1.101547,0.356839 0.32581,0 0.760222,-0.356839 z"
     style="font-style:normal;font-variant:normal;font-weight:normal;font-stretch:normal;font-family:'Copperplate Gothic Bold';-inkscape-font-specification:'Copperplate Gothic Bold, ';fill:#009999;stroke:#009999;stroke-width:0.794;fill-opacity:1;stroke-miterlimit:4;stroke-dasharray:none;stroke-opacity:1"
     id="path873" /><path
     d="m 44.999344,80.505547 v 6.981635 q 0,0.465443 0.217207,0.729193 0.232721,0.248236 0.775737,0.387869 v 0.496472 h -6.609281 v -0.496472 q 0.558531,-0.155148 0.775737,-0.403384 0.217207,-0.248235 0.217207,-0.713678 V 69.552138 q 0,-0.480957 -0.217207,-0.729193 -0.217206,-0.248236 -0.775737,-0.403384 v -0.496472 h 13.218562 q 2.311697,0 3.66148,0.310295 1.365297,0.310295 2.404785,1.070518 1.070518,0.791252 1.675593,2.078975 0.605075,1.334269 0.605075,2.823684 0,2.141035 -1.148091,3.754568 -0.992944,1.380812 -2.637507,1.970373 -1.629048,0.574045 -4.561335,0.574045 z m 0,-3.490817 h 7.059209 q 2.110005,0 2.963316,-0.449928 0.543016,-0.29478 0.868826,-0.930885 0.341324,-0.651619 0.341324,-1.427356 0,-0.760223 -0.341324,-1.396327 -0.32581,-0.651619 -0.868826,-0.946399 -0.837796,-0.449928 -2.963316,-0.449928 h -7.059209 z"
     style="font-style:normal;font-variant:normal;font-weight:normal;font-stretch:normal;font-family:'Copperplate Gothic Bold';-inkscape-font-specification:'Copperplate Gothic Bold, ';fill:#009999;stroke:#009999;stroke-width:0.794;fill-opacity:1;stroke-miterlimit:4;stroke-dasharray:none;stroke-opacity:1"
     id="path875" /><path
     d="m 69.326464,79.807384 v 5.802514 H 82.94841 q 0.465442,0 0.713678,-0.217206 0.248236,-0.217207 0.403383,-0.775738 h 0.496472 v 5.476705 H 84.065471 Q 83.910324,89.535128 83.662088,89.317922 83.413852,89.100716 82.94841,89.100716 H 63.710127 v -0.496472 q 0.55853,-0.155148 0.775737,-0.403384 0.217206,-0.248235 0.217206,-0.729193 V 69.552138 q 0,-0.480957 -0.217206,-0.729193 -0.217207,-0.248236 -0.775737,-0.403384 v -0.496472 h 18.865929 q 0.465442,0 0.713678,-0.217206 0.248236,-0.232721 0.403384,-0.791252 h 0.496471 v 5.476705 H 83.693118 Q 83.53797,71.84832 83.289734,71.631113 83.041498,71.413907 82.576056,71.413907 H 69.326464 v 5.026777 h 8.595169 q 0.465442,0 0.713678,-0.217206 0.248236,-0.217207 0.403383,-0.775737 h 0.496472 v 5.352586 h -0.496472 q -0.155147,-0.543016 -0.403383,-0.760222 -0.248236,-0.232721 -0.713678,-0.232721 z"
     style="font-style:normal;font-variant:normal;font-weight:normal;font-stretch:normal;font-family:'Copperplate Gothic Bold';-inkscape-font-specification:'Copperplate Gothic Bold, ';fill:#009999;stroke:#009999;stroke-width:0.794;fill-opacity:1;stroke-miterlimit:4;stroke-dasharray:none;stroke-opacity:1"
     id="path877" /><path
     d="m 108.37708,81.8243 2.9478,4.421703 -0.40338,0.279265 q -0.43442,-0.403383 -0.71368,-0.403383 -0.27927,0 -1.56699,0.744707 -2.66854,1.53596 -4.49928,2.078976 -1.81522,0.527502 -4.32861,0.527502 -5.011262,0 -8.222814,-2.373756 -1.892799,-1.380813 -2.978831,-3.428759 -1.256695,-2.342726 -1.256695,-5.16641 0,-3.847656 2.249638,-6.686855 3.382215,-4.266554 10.224217,-4.266554 2.513385,0 4.313095,0.527501 1.79971,0.527501 4.49928,2.078976 1.28772,0.729193 1.56699,0.729193 0.27926,0 0.71368,-0.403384 l 0.40338,0.279266 -2.9478,4.421702 -0.4189,-0.279266 q 0.031,-0.248235 0.031,-0.418898 0,-0.449927 -0.38787,-0.837796 -0.38787,-0.403383 -1.38081,-0.961914 -2.74611,-1.551474 -5.81803,-1.551474 -3.63045,0 -5.786999,1.815225 -2.544418,2.12552 -2.544418,5.554278 0,3.428759 2.544418,5.554279 2.156549,1.815225 5.786999,1.815225 3.07192,0 5.81803,-1.551475 0.99294,-0.55853 1.38081,-0.946399 0.38787,-0.403383 0.38787,-0.853311 0,-0.170662 -0.031,-0.403383 z"
     style="font-style:normal;font-variant:normal;font-weight:normal;font-stretch:normal;font-family:'Copperplate Gothic Bold';-inkscape-font-specification:'Copperplate Gothic Bold, ';fill:#009999;stroke:#009999;stroke-width:0.794;fill-opacity:1;stroke-miterlimit:4;stroke-dasharray:none;stroke-opacity:1"
     id="path879" /><path
     d="m 127.25852,78.069732 6.40759,8.300389 q 1.055,1.365297 1.50493,1.737651 0.46544,0.372354 1.27221,0.496472 v 0.496472 h -8.39348 v -0.496472 q 0.93089,-0.186177 0.93089,-0.806767 0,-0.32581 -0.55854,-1.055003 l -4.08037,-5.243983 -3.87869,5.073321 q -0.6361,0.822282 -0.6361,1.163606 0,0.775737 1.03948,0.868826 v 0.496472 h -8.12972 v -0.496472 q 0.71368,-0.07757 1.10154,-0.403384 0.40339,-0.325809 1.59802,-1.830739 l 6.39208,-8.067667 -5.88009,-7.695314 q -1.14809,-1.50493 -1.53596,-1.79971 -0.37235,-0.310295 -1.21015,-0.387869 l -0.0155,-0.496472 h 8.50208 v 0.496472 q -0.93089,0.248236 -0.93089,0.9464 0,0.372354 0.66713,1.241179 l 3.32016,4.266555 3.3667,-4.266555 q 0.74471,-0.946399 0.74471,-1.334268 0,-0.682649 -1.07052,-0.853311 v -0.496472 h 8.26936 v 0.496472 q -0.74471,0.07757 -1.07052,0.341325 -0.31029,0.248236 -1.62905,1.846254 z"
     style="font-style:normal;font-variant:normal;font-weight:normal;font-stretch:normal;font-family:'Copperplate Gothic Bold';-inkscape-font-specification:'Copperplate Gothic Bold, ';fill:#009999;stroke:#009999;stroke-width:0.794;fill-opacity:1;stroke-miterlimit:4;stroke-dasharray:none;stroke-opacity:1"
     id="path881" /></g><g
   aria-label="Technology Services"
   style="font-style:normal;font-variant:normal;font-weight:normal;font-stretch:normal;font-size:10.22467327px;line-height:1.25;font-family:'ITC Zapf Chancery Light';-inkscape-font-specification:'ITC Zapf Chancery Light, ';letter-spacing:0px;word-spacing:0px;fill:#009999;fill-opacity:1;stroke:none;stroke-width:0.25561681"
   id="text816-5"><path
     d="m 19.36504,95.896758 v 5.167252 q 0,0.15477 0.0699,0.23465 0.06989,0.0799 0.249625,0.12981 v 0.15976 h -2.126812 v -0.15976 q 0.179731,-0.0499 0.249626,-0.12981 0.06989,-0.0799 0.06989,-0.23465 v -5.167252 h -2.116826 q -0.149776,0 -0.229656,0.06989 -0.07988,0.0649 -0.129806,0.244633 h -0.15976 v -1.762358 h 0.15976 q 0.05492,0.184723 0.129806,0.254618 0.07988,0.0699 0.229656,0.0699 h 5.716431 q 0.154768,0 0.234648,-0.0699 0.07988,-0.0699 0.129805,-0.254618 h 0.159761 v 1.762358 h -0.159761 q -0.04993,-0.17973 -0.129805,-0.244633 -0.07988,-0.06989 -0.234648,-0.06989 z"
     style="font-style:normal;font-variant:normal;font-weight:normal;font-stretch:normal;font-family:'Copperplate Gothic Bold';-inkscape-font-specification:'Copperplate Gothic Bold, ';fill:#009999;stroke-width:0.25561681;fill-opacity:1"
     id="path836" /><path
     d="m 24.327601,99.211789 v 1.362961 h 3.54968 q 0.154768,0 0.234648,-0.0699 0.08487,-0.0699 0.134798,-0.25462 h 0.13979 v 1.65752 h -0.13979 q -0.04493,-0.17474 -0.129806,-0.24963 -0.08487,-0.0699 -0.23964,-0.0699 h -5.207195 v -0.13979 q 0.174738,-0.0449 0.244633,-0.12981 0.07489,-0.0849 0.07489,-0.23964 v -4.573145 q 0,-0.154768 -0.06989,-0.234648 -0.06989,-0.07988 -0.249626,-0.134798 v -0.139791 h 5.052427 q 0.15976,0 0.23964,-0.06989 0.08487,-0.0699 0.134798,-0.249626 h 0.134798 v 1.657515 h -0.134798 q -0.04993,-0.184723 -0.134798,-0.254618 -0.07988,-0.0699 -0.23964,-0.0699 h -3.394912 v 1.228159 h 2.106842 q 0.154768,0 0.234649,-0.0699 0.08487,-0.0699 0.13979,-0.249626 h 0.134798 v 1.617575 h -0.134798 q -0.04993,-0.17973 -0.134798,-0.249626 -0.07988,-0.07489 -0.239641,-0.07489 z"
     style="font-style:normal;font-variant:normal;font-weight:normal;font-stretch:normal;font-family:'Copperplate Gothic Bold';-inkscape-font-specification:'Copperplate Gothic Bold, ';fill:#009999;stroke-width:0.25561681;fill-opacity:1"
     id="path838" /><path
     d="m 34.707043,99.586227 0.843735,1.228163 -0.114828,0.0849 q -0.11982,-0.0849 -0.189716,-0.0849 -0.08487,0 -0.394408,0.18472 -0.683975,0.3994 -1.208189,0.55417 -0.524214,0.15477 -1.208189,0.15477 -1.36795,0 -2.231655,-0.65402 -0.489267,-0.37444 -0.778832,-0.9386 -0.309536,-0.609083 -0.309536,-1.323013 0,-0.983525 0.569146,-1.737395 0.893661,-1.178234 2.740892,-1.178234 0.683975,0 1.213181,0.154768 0.534199,0.154768 1.213182,0.554169 0.309536,0.184723 0.394408,0.184723 0.0699,0 0.189716,-0.08487 l 0.114828,0.08987 -0.843735,1.223166 -0.109836,-0.07988 q 0.005,-0.05991 0.01,-0.07489 0.005,-0.04493 0.005,-0.0649 0,-0.244633 -0.67399,-0.554169 -0.639042,-0.294558 -1.288069,-0.294558 -0.908638,0 -1.497755,0.479281 -0.67399,0.539192 -0.67399,1.382927 0,0.848728 0.67399,1.387923 0.59411,0.47429 1.497755,0.47429 0.708937,0 1.412882,-0.35447 0.549177,-0.27958 0.549177,-0.489269 0,-0.01 -0.01498,-0.139791 z"
     style="font-style:normal;font-variant:normal;font-weight:normal;font-stretch:normal;font-family:'Copperplate Gothic Bold';-inkscape-font-specification:'Copperplate Gothic Bold, ';fill:#009999;stroke-width:0.25561681;fill-opacity:1"
     id="path840" /><path
     d="m 40.947688,99.156871 h -3.120323 v 1.922119 q 0,0.15477 0.0699,0.23964 0.06989,0.0799 0.249626,0.1348 v 0.1348 H 36.16985 v -0.13979 q 0.174738,-0.0449 0.244633,-0.12981 0.07489,-0.0849 0.07489,-0.23964 v -4.573145 q 0,-0.154768 -0.0699,-0.234648 -0.06989,-0.07988 -0.249625,-0.134798 v -0.139791 h 1.977036 v 0.139791 q -0.179731,0.04993 -0.249626,0.134798 -0.0699,0.07988 -0.0699,0.234648 v 1.637545 h 3.120323 v -1.637545 q 0,-0.154768 -0.0699,-0.234648 -0.0649,-0.07988 -0.249625,-0.134798 v -0.139791 h 1.977036 v 0.139791 q -0.179731,0.04993 -0.249626,0.134798 -0.06989,0.07988 -0.06989,0.234648 v 4.573145 q 0,0.15477 0.06989,0.23964 0.0699,0.0799 0.249626,0.1348 v 0.1348 h -1.977036 v -0.13979 q 0.174738,-0.0449 0.244633,-0.12981 0.07489,-0.0849 0.07489,-0.23964 z"
     style="font-style:normal;font-variant:normal;font-weight:normal;font-stretch:normal;font-family:'Copperplate Gothic Bold';-inkscape-font-specification:'Copperplate Gothic Bold, ';fill:#009999;stroke-width:0.25561681;fill-opacity:1"
     id="path842" /><path
     d="m 45.13641,97.903749 v 3.175241 q 0,0.15477 0.0699,0.23964 0.07489,0.0849 0.249626,0.1348 v 0.1348 h -1.857216 v -0.13979 q 0.174738,-0.0449 0.244633,-0.12981 0.07489,-0.0849 0.07489,-0.23964 v -4.573145 q 0,-0.154768 -0.0699,-0.234648 -0.06989,-0.07988 -0.249626,-0.134798 v -0.139791 h 2.146782 v 0.139791 q -0.219671,0.05492 -0.219671,0.194708 0,0.11982 0.159761,0.279581 l 2.99551,2.975539 v -3.080382 q 0,-0.154768 -0.0699,-0.234648 -0.0699,-0.08487 -0.249625,-0.134798 v -0.139791 h 1.857216 v 0.139791 q -0.179731,0.04993 -0.249626,0.134798 -0.0699,0.07988 -0.0699,0.234648 v 4.573145 q 0,0.15477 0.0699,0.23964 0.06989,0.0799 0.249626,0.1348 v 0.1348 h -2.001999 v -0.1348 q 0.21967,-0.0449 0.21967,-0.18472 0,-0.0699 -0.05991,-0.14479 -0.05991,-0.0749 -0.274588,-0.29456 z"
     style="font-style:normal;font-variant:normal;font-weight:normal;font-stretch:normal;font-family:'Copperplate Gothic Bold';-inkscape-font-specification:'Copperplate Gothic Bold, ';fill:#009999;stroke-width:0.25561681;fill-opacity:1"
     id="path844" /><path
     d="m 54.352593,95.876788 q 1.333002,0 2.22167,0.678982 1.063406,0.818773 1.063406,2.28158 0,1.37294 -1.063406,2.19171 -0.878683,0.67899 -2.211685,0.67899 -1.333002,0 -2.211684,-0.67899 -1.068399,-0.81877 -1.068399,-2.236643 0,-1.432852 1.068399,-2.236647 0.883675,-0.664005 2.201699,-0.678982 z m 0.005,1.058413 q -0.863706,0 -1.40789,0.554169 -0.504244,0.519222 -0.504244,1.303047 0,0.778833 0.504244,1.298053 0.544184,0.55916 1.412882,0.55916 0.863706,0 1.40789,-0.55916 0.504244,-0.514228 0.504244,-1.27309 0,-0.823765 -0.504244,-1.32801 -0.549177,-0.544184 -1.412882,-0.554169 z"
     style="font-style:normal;font-variant:normal;font-weight:normal;font-stretch:normal;font-family:'Copperplate Gothic Bold';-inkscape-font-specification:'Copperplate Gothic Bold, ';fill:#009999;stroke-width:0.25561681;fill-opacity:1"
     id="path846" /><path
     d="m 60.153897,100.57475 h 3.130308 q 0.159761,0 0.239641,-0.0699 0.07988,-0.0699 0.134798,-0.25462 h 0.134798 v 1.65752 h -0.134798 q -0.04993,-0.17973 -0.134798,-0.24963 -0.07988,-0.0699 -0.239641,-0.0699 h -4.787823 v -0.13979 q 0.174738,-0.0449 0.244633,-0.12981 0.07489,-0.0849 0.07489,-0.23964 v -4.573145 q 0,-0.154768 -0.06989,-0.234648 -0.0699,-0.07988 -0.249626,-0.134798 v -0.139791 h 1.977036 v 0.139791 q -0.17973,0.04993 -0.249625,0.134798 -0.0699,0.07988 -0.0699,0.234648 z"
     style="font-style:normal;font-variant:normal;font-weight:normal;font-stretch:normal;font-family:'Copperplate Gothic Bold';-inkscape-font-specification:'Copperplate Gothic Bold, ';fill:#009999;stroke-width:0.25561681;fill-opacity:1"
     id="path848" /><path
     d="m 67.512868,95.876788 q 1.333002,0 2.221669,0.678982 1.063406,0.818773 1.063406,2.28158 0,1.37294 -1.063406,2.19171 -0.878682,0.67899 -2.211684,0.67899 -1.333002,0 -2.211685,-0.67899 -1.068398,-0.81877 -1.068398,-2.236643 0,-1.432852 1.068398,-2.236647 0.883675,-0.664005 2.2017,-0.678982 z m 0.005,1.058413 q -0.863705,0 -1.407889,0.554169 -0.504244,0.519222 -0.504244,1.303047 0,0.778833 0.504244,1.298053 0.544184,0.55916 1.412882,0.55916 0.863705,0 1.407889,-0.55916 0.504245,-0.514228 0.504245,-1.27309 0,-0.823765 -0.504245,-1.32801 -0.549176,-0.544184 -1.412882,-0.554169 z"
     style="font-style:normal;font-variant:normal;font-weight:normal;font-stretch:normal;font-family:'Copperplate Gothic Bold';-inkscape-font-specification:'Copperplate Gothic Bold, ';fill:#009999;stroke-width:0.25561681;fill-opacity:1"
     id="path850" /><path
     d="m 76.699098,99.431459 h -1.273092 q -0.15976,0 -0.244633,0.0699 -0.07988,0.0699 -0.129805,0.249625 H 74.91677 v -1.477784 h 0.134798 q 0.04993,0.174738 0.129805,0.244633 0.08487,0.06989 0.244633,0.06989 h 2.661011 v 0.144783 q -0.174738,0.04993 -0.249625,0.144783 -0.0699,0.09486 -0.0699,0.269596 v 1.178234 q 0,0.15477 0.0699,0.23964 0.07489,0.0849 0.249625,0.1348 v 0.11483 q -1.617575,0.89366 -3.225165,0.89366 -1.38792,0 -2.246632,-0.65402 -0.464304,-0.35946 -0.748878,-0.88867 -0.334498,-0.629058 -0.334498,-1.342988 0,-0.988518 0.609087,-1.757365 0.948578,-1.188219 2.805794,-1.188219 0.81378,0 1.857216,0.359461 0.414379,0.13979 0.484274,0.13979 0.08487,0 0.1997,-0.07988 l 0.119821,0.0649 -0.664005,1.407889 -0.11982,-0.05991 q 0,-0.01997 0,-0.02996 0,-0.184723 -0.369446,-0.379431 -0.683975,-0.364454 -1.4678,-0.364454 -0.903646,0 -1.482778,0.494259 -0.609087,0.519222 -0.609087,1.397905 0,0.823765 0.55417,1.318025 0.569147,0.50424 1.597605,0.50424 0.978533,0 1.652523,-0.36445 z"
     style="font-style:normal;font-variant:normal;font-weight:normal;font-stretch:normal;font-family:'Copperplate Gothic Bold';-inkscape-font-specification:'Copperplate Gothic Bold, ';fill:#009999;stroke-width:0.25561681;fill-opacity:1"
     id="path852" /><path
     d="m 82.265753,99.136901 v 1.942089 q 0,0.15477 0.0699,0.23964 0.0699,0.0799 0.249626,0.1348 v 0.1348 h -1.977036 v -0.1348 q 0.17973,-0.0499 0.249626,-0.12981 0.06989,-0.0849 0.06989,-0.24463 v -1.942089 l -1.657516,-2.28158 q -0.27958,-0.384424 -0.449326,-0.524214 -0.164753,-0.144783 -0.394409,-0.194708 v -0.139791 h 2.516228 v 0.139791 q -0.324513,0.08487 -0.324513,0.304543 0,0.109835 0.234648,0.439341 l 0.81378,1.128309 0.79381,-1.128309 q 0.234649,-0.334498 0.234649,-0.444333 0,-0.209686 -0.319521,-0.299551 l -0.005,-0.139791 h 2.396408 v 0.139791 q -0.229656,0.04993 -0.399401,0.194708 -0.164753,0.13979 -0.444334,0.524214 z"
     style="font-style:normal;font-variant:normal;font-weight:normal;font-stretch:normal;font-family:'Copperplate Gothic Bold';-inkscape-font-specification:'Copperplate Gothic Bold, ';fill:#009999;stroke-width:0.25561681;fill-opacity:1"
     id="path854" /><path
     d="m 94.177896,95.347581 -0.81378,1.602598 -0.139791,-0.07988 q 0.005,-0.04993 0.005,-0.07988 0,-0.169745 -0.289566,-0.364453 -0.888668,-0.619072 -2.086872,-0.619072 -0.529206,0 -0.9336,0.129805 -0.294559,0.09985 -0.479282,0.299551 -0.17973,0.199701 -0.17973,0.434349 0,0.384424 0.464304,0.524214 0.23964,0.0699 1.028458,0.149776 l 0.783825,0.07988 q 0.698952,0.07489 1.128309,0.204693 0.434349,0.129805 0.768847,0.364454 0.339491,0.244633 0.534199,0.644034 0.199701,0.399402 0.199701,0.85372 0,0.718921 -0.464304,1.278081 -0.419371,0.50924 -1.303047,0.75387 -0.659012,0.18473 -1.412882,0.18473 -1.352972,0 -2.670996,-0.64903 -0.279581,-0.12981 -0.334499,-0.12981 -0.0649,0 -0.204693,0.10984 l -0.144783,-0.0749 0.738893,-1.672491 0.144783,0.0699 q 0,0.04493 0,0.0649 0,0.224663 0.214678,0.414379 0.324513,0.289564 1.003496,0.499254 0.678982,0.20968 1.288069,0.20968 0.664004,0 1.133301,-0.22466 0.259611,-0.12481 0.414379,-0.329506 0.154768,-0.209686 0.154768,-0.434349 0,-0.339491 -0.364454,-0.484274 -0.254618,-0.09985 -1.028458,-0.184723 l -0.768848,-0.07988 q -0.77384,-0.07988 -1.093361,-0.149775 -0.319521,-0.07489 -0.639042,-0.234648 -0.454319,-0.224664 -0.71393,-0.67399 -0.234648,-0.404394 -0.234648,-0.928608 0,-0.863705 0.59411,-1.42786 0.778832,-0.743885 2.336497,-0.743885 0.65402,0 1.218174,0.134798 0.564154,0.129806 1.40789,0.484274 0.289566,0.114828 0.354468,0.114828 0.104843,0 0.244634,-0.114828 z"
     style="font-style:normal;font-variant:normal;font-weight:normal;font-stretch:normal;font-family:'Copperplate Gothic Bold';-inkscape-font-specification:'Copperplate Gothic Bold, ';fill:#009999;stroke-width:0.25561681;fill-opacity:1"
     id="path856" /><path
     d="m 96.73906,99.211789 v 1.362961 h 3.54968 q 0.15477,0 0.23465,-0.0699 0.0849,-0.0699 0.1348,-0.25462 h 0.13979 v 1.65752 h -0.13979 q -0.0449,-0.17474 -0.12981,-0.24963 -0.0849,-0.0699 -0.23964,-0.0699 h -5.207195 v -0.13979 q 0.174738,-0.0449 0.244633,-0.12981 0.07489,-0.0849 0.07489,-0.23964 v -4.573145 q 0,-0.154768 -0.0699,-0.234648 -0.0699,-0.07988 -0.249626,-0.134798 v -0.139791 h 5.052425 q 0.15976,0 0.23964,-0.06989 0.0849,-0.0699 0.1348,-0.249626 h 0.1348 v 1.657515 h -0.1348 q -0.0499,-0.184723 -0.1348,-0.254618 -0.0799,-0.0699 -0.23964,-0.0699 h -3.39491 v 1.228159 h 2.106842 q 0.154768,0 0.234649,-0.0699 0.08487,-0.0699 0.13979,-0.249626 h 0.134798 v 1.617575 h -0.134798 q -0.04993,-0.17973 -0.134798,-0.249626 -0.07988,-0.07489 -0.239641,-0.07489 z"
     style="font-style:normal;font-variant:normal;font-weight:normal;font-stretch:normal;font-family:'Copperplate Gothic Bold';-inkscape-font-specification:'Copperplate Gothic Bold, ';fill:#009999;stroke-width:0.25561681;fill-opacity:1"
     id="path858" /><path
     d="m 103.30921,99.291669 v 1.787321 q 0,0.15477 0.0699,0.23964 0.0699,0.0799 0.24962,0.1348 v 0.1348 h -1.97703 v -0.13979 q 0.17474,-0.0449 0.24463,-0.12981 0.0749,-0.0849 0.0749,-0.23964 v -4.573145 q 0,-0.154768 -0.0699,-0.234648 -0.0699,-0.07988 -0.24962,-0.134798 v -0.139791 h 3.6645 q 0.71393,0 1.08837,0.07489 0.37444,0.0699 0.669,0.259611 0.60409,0.394408 0.60409,1.288069 0,0.678982 -0.37443,1.063406 -0.36945,0.379431 -1.19821,0.549177 l 1.05842,1.477781 q 0.28956,0.40939 0.45931,0.55917 0.17473,0.14478 0.39441,0.18472 v 0.1348 h -2.34649 v -0.1348 q 0.25961,-0.0699 0.25961,-0.22466 0,-0.10984 -0.15976,-0.3345 l -1.11832,-1.602601 z m 0,-1.013481 h 2.01698 q 0.45931,0 0.67898,-0.09985 0.30954,-0.134798 0.30954,-0.5342 0,-0.354468 -0.21967,-0.494259 -0.21468,-0.13979 -0.76885,-0.13979 h -2.01698 z"
     style="font-style:normal;font-variant:normal;font-weight:normal;font-stretch:normal;font-family:'Copperplate Gothic Bold';-inkscape-font-specification:'Copperplate Gothic Bold, ';fill:#009999;stroke-width:0.25561681;fill-opacity:1"
     id="path860" /><path
     d="m 111.3197,99.820876 1.35297,-2.960563 q 0.11982,-0.254618 0.11982,-0.379431 0,-0.249626 -0.32451,-0.344483 v -0.139791 h 2.16176 v 0.139791 q -0.1997,0.0649 -0.28957,0.15976 -0.0899,0.09486 -0.22965,0.389416 l -1.95707,4.118825 q -0.10484,0.21967 -0.10484,0.3345 0,0.24963 0.3295,0.31453 v 0.1348 h -2.19171 v -0.1348 q 0.32451,-0.0649 0.32451,-0.31453 0,-0.11483 -0.10484,-0.3345 L 108.449,96.685575 q -0.13979,-0.299551 -0.22965,-0.389416 -0.0849,-0.09486 -0.28957,-0.15976 v -0.139791 h 2.24164 v 0.139791 q -0.31952,0.09985 -0.31952,0.344483 0,0.109836 0.12481,0.379431 z"
     style="font-style:normal;font-variant:normal;font-weight:normal;font-stretch:normal;font-family:'Copperplate Gothic Bold';-inkscape-font-specification:'Copperplate Gothic Bold, ';fill:#009999;stroke-width:0.25561681;fill-opacity:1"
     id="path862" /><path
     d="m 116.74906,96.505845 v 4.573145 q 0,0.15477 0.0699,0.23964 0.0699,0.0799 0.24962,0.1348 v 0.1348 h -1.97703 v -0.13979 q 0.17474,-0.0449 0.24463,-0.12981 0.0749,-0.0849 0.0749,-0.23964 v -4.573145 q 0,-0.154768 -0.0699,-0.234648 -0.0699,-0.07988 -0.24962,-0.134798 v -0.139791 h 1.97703 v 0.139791 q -0.17973,0.04993 -0.24962,0.134798 -0.0699,0.07988 -0.0699,0.234648 z"
     style="font-style:normal;font-variant:normal;font-weight:normal;font-stretch:normal;font-family:'Copperplate Gothic Bold';-inkscape-font-specification:'Copperplate Gothic Bold, ';fill:#009999;stroke-width:0.25561681;fill-opacity:1"
     id="path864" /><path
     d="m 123.51392,99.586227 0.84373,1.228163 -0.11482,0.0849 q -0.11982,-0.0849 -0.18972,-0.0849 -0.0849,0 -0.39441,0.18472 -0.68397,0.3994 -1.20819,0.55417 -0.52421,0.15477 -1.20819,0.15477 -1.36795,0 -2.23165,-0.65402 -0.48927,-0.37444 -0.77883,-0.9386 -0.30954,-0.609083 -0.30954,-1.323013 0,-0.983525 0.56915,-1.737395 0.89366,-1.178234 2.74089,-1.178234 0.68397,0 1.21318,0.154768 0.5342,0.154768 1.21318,0.554169 0.30954,0.184723 0.39441,0.184723 0.0699,0 0.18972,-0.08487 l 0.11482,0.08987 -0.84373,1.223166 -0.10984,-0.07988 q 0.005,-0.05991 0.01,-0.07489 0.005,-0.04493 0.005,-0.0649 0,-0.244633 -0.67399,-0.554169 -0.63904,-0.294558 -1.28807,-0.294558 -0.90864,0 -1.49775,0.479281 -0.67399,0.539192 -0.67399,1.382927 0,0.848728 0.67399,1.387923 0.59411,0.47429 1.49775,0.47429 0.70894,0 1.41288,-0.35447 0.54918,-0.27958 0.54918,-0.489269 0,-0.01 -0.015,-0.139791 z"
     style="font-style:normal;font-variant:normal;font-weight:normal;font-stretch:normal;font-family:'Copperplate Gothic Bold';-inkscape-font-specification:'Copperplate Gothic Bold, ';fill:#009999;stroke-width:0.25561681;fill-opacity:1"
     id="path866" /><path
     d="m 126.83395,99.211789 v 1.362961 h 3.54968 q 0.15476,0 0.23464,-0.0699 0.0849,-0.0699 0.1348,-0.25462 h 0.13979 v 1.65752 h -0.13979 q -0.0449,-0.17474 -0.1298,-0.24963 -0.0849,-0.0699 -0.23964,-0.0699 h -5.2072 v -0.13979 q 0.17474,-0.0449 0.24464,-0.12981 0.0749,-0.0849 0.0749,-0.23964 v -4.573145 q 0,-0.154768 -0.0699,-0.234648 -0.0699,-0.07988 -0.24963,-0.134798 v -0.139791 h 5.05243 q 0.15976,0 0.23964,-0.06989 0.0849,-0.0699 0.1348,-0.249626 h 0.13479 v 1.657515 h -0.13479 q -0.0499,-0.184723 -0.1348,-0.254618 -0.0799,-0.0699 -0.23964,-0.0699 h -3.39491 v 1.228159 h 2.10684 q 0.15477,0 0.23465,-0.0699 0.0849,-0.0699 0.13979,-0.249626 h 0.1348 v 1.617575 h -0.1348 q -0.0499,-0.17973 -0.1348,-0.249626 -0.0799,-0.07489 -0.23964,-0.07489 z"
     style="font-style:normal;font-variant:normal;font-weight:normal;font-stretch:normal;font-family:'Copperplate Gothic Bold';-inkscape-font-specification:'Copperplate Gothic Bold, ';fill:#009999;stroke-width:0.25561681;fill-opacity:1"
     id="path868" /><path
     d="m 137.12352,96.500852 -0.67399,1.303047 -0.11982,-0.0649 q 0,-0.164753 -0.10484,-0.259611 -0.28457,-0.254618 -0.83874,-0.419371 -0.55417,-0.164753 -1.12332,-0.164753 -0.48427,0 -0.85871,0.134798 -0.53919,0.194708 -0.53919,0.564154 0,0.244634 0.25961,0.349476 0.25961,0.09985 1.00349,0.159761 l 0.78882,0.05991 q 1.03345,0.07988 1.57264,0.399401 0.29956,0.179731 0.49426,0.479282 0.24464,0.374439 0.24464,0.843735 0,0.853722 -0.76885,1.347982 -0.7339,0.47429 -1.98702,0.47429 -1.26311,0 -2.44134,-0.5342 -0.0799,-0.0349 -0.1348,-0.0349 -0.0998,0 -0.18472,0.11982 l -0.12482,-0.0499 0.57414,-1.367954 0.12482,0.04993 q 0,0.02996 0,0.03994 0,0.129809 0.0999,0.219669 0.24962,0.21967 0.8637,0.38443 0.61408,0.15976 1.21318,0.15976 0.52921,0 0.94858,-0.13979 0.51922,-0.16975 0.51922,-0.54918 0,-0.304545 -0.35946,-0.424365 -0.23964,-0.07988 -0.8637,-0.134798 l -0.78383,-0.0649 q -0.63405,-0.04993 -0.96855,-0.129805 -0.3345,-0.07988 -0.58412,-0.234649 -0.31952,-0.1997 -0.49925,-0.544184 -0.17973,-0.344483 -0.17973,-0.75387 0,-0.918623 0.78881,-1.402897 0.71893,-0.439341 1.77734,-0.439341 0.57414,0 1.0684,0.129805 0.49925,0.124813 1.18822,0.444334 0.20469,0.09486 0.28457,0.09486 0.0799,0 0.20469,-0.109835 z"
     style="font-style:normal;font-variant:normal;font-weight:normal;font-stretch:normal;font-family:'Copperplate Gothic Bold';-inkscape-font-specification:'Copperplate Gothic Bold, ';fill:#009999;stroke-width:0.25561681;fill-opacity:1"
     id="path870" /></g></svg>