<?xml version="1.0" encoding="UTF-8" standalone="no"?>
<!-- Generator: Adobe Illustrator 21.0.0, SVG Export Plug-In . SVG Version: 6.00 Build 0)  -->

<svg
   xmlns:dc="http://purl.org/dc/elements/1.1/"
   xmlns:cc="http://creativecommons.org/ns#"
   xmlns:rdf="http://www.w3.org/1999/02/22-rdf-syntax-ns#"
   xmlns:svg="http://www.w3.org/2000/svg"
   xmlns="http://www.w3.org/2000/svg"
   xmlns:sodipodi="http://sodipodi.sourceforge.net/DTD/sodipodi-0.dtd"
   xmlns:inkscape="http://www.inkscape.org/namespaces/inkscape"
   version="1.1"
   id="svg2"
   inkscape:export-filename="C:\Users\Jack\Documents\GitHub\jack\images\logo.png"
   inkscape:export-xdpi="180.32433"
   inkscape:export-ydpi="180.32433"
   inkscape:version="0.92.4 (5da689c313, 2019-01-14)"
   sodipodi:docname="logo.svg"
   x="0px"
   y="0px"
   viewBox="0 0 344 111"
   style="enable-background:new 0 0 344 111;"
   xml:space="preserve"><metadata
   id="metadata7"><rdf:RDF><cc:Work
       rdf:about=""><dc:format>image/svg+xml</dc:format><dc:type
         rdf:resource="http://purl.org/dc/dcmitype/StillImage" /></cc:Work></rdf:RDF></metadata><defs
   id="defs5" />
<sodipodi:namedview
   bordercolor="#666666"
   borderopacity="1"
   gridtolerance="10"
   guidetolerance="10"
   id="namedview34"
   inkscape:current-layer="svg2"
   inkscape:cx="124.00092"
   inkscape:cy="52.000477"
   inkscape:pageopacity="0"
   inkscape:pageshadow="2"
   inkscape:window-height="1369"
   inkscape:window-maximized="1"
   inkscape:window-width="2560"
   inkscape:window-x="-8"
   inkscape:window-y="-8"
   inkscape:zoom="3.224784"
   objecttolerance="10"
   pagecolor="#ffffff"
   showgrid="false">
	</sodipodi:namedview>
<path
   id="path3733-1"
   inkscape:connector-curvature="0"
   d="M48.4,6.7c-2.2,0-4.4,0-6.6,0.1c-2,0-4.1,0-6.1,0.1c-0.7,0-1.5,0-2.2,0  c-0.2,0-0.3,0-0.5,0c-0.7,0-1.5,0-2.2,0c-1.6,0.2-3.3,0.4-5,0.5c-2.4,0.2-4.8,0.3-7.2,0.6c0,0,0,0-0.1,0c-3.4,0.4-6.7,1-9.8,2.3  c0,0,0,0,0,0c-0.2,0.1-0.4,0.2-0.6,0.3c0,0,0,0,0,0c-0.1,0-0.2,0.1-0.3,0.2C7.1,11.2,6.5,11.6,6,12c0,0,0,0,0,0  c-0.7,0.6-1.3,1.2-1.9,1.9c-0.2,0.6-0.4,1.2-0.6,1.8c-0.9,2.4-1.3,5.1-1.7,7.5c-0.1,1.1-0.2,2.2-0.3,3.4c0,0,0,0,0,0  c-0.2,2-0.2,4-0.2,6c0,5.3,0.4,10.5,1.5,15.7c0.1,0.4,0.1,0.9,0.2,1.3c0,0.6,0.2,1.1,0.5,1.6c0,0.1,0,0.1,0.1,0.2  c0,0,0.1,0.1,0.1,0.1c0.5,0.8,1.3,1.4,2,2c0.5,0.6,0.9,1.1,1.3,1.8c0.5,1.3,1,2.5,1.5,3.8c0,0.1,0,0.1,0.1,0.2c0,0,0,0,0,0.1  c0.1,0.2,0.1,0.3,0.2,0.5c0.8,2.1,1.5,4.2,2.3,6.4c0.8,2.2,1.5,4.5,2.4,6.7c0,0,0,0,0,0.1c0.1,0.4,0.3,0.8,0.5,1.1  c0.1,0.2,0.2,0.4,0.3,0.6c1.3,1.2,2.7,2.2,4.3,3c0,0,0,0,0,0c0.3,0.2,0.6,0.3,0.8,0.5c0.3,0.1,0.5,0.1,0.8,0.2  c2.6,1.1,5.4,1.8,8,2.7c18.8,4.6,38.1,6.5,57.4,6.7c12.8,0.1,25.6,0.1,38.2-2.5c0.7-0.1,1.4-0.3,2.1-0.5c0,0,0,0,0,0  c0,0,0.1,0,0.1,0c1-0.2,1.9-0.5,2.8-0.9c1.5-0.5,3-1,4.3-1.8c0.5-0.3,1-0.5,1.5-0.8c0.4-0.8,0.7-1.5,1.1-2.3c1-1.8,1.8-3.7,2.6-5.6  c1.1-2.4,2.3-4.8,3.3-7.3c1.1-2.5,2.2-4.9,3.5-7.3c0.4-0.2,0.8-0.4,1.2-0.5c0.6-0.2,1.3-0.5,1.9-0.7c0.4-1.1,0.7-2.2,1.1-3.3  c0.5-1.5,1-2.9,1.5-4.4c0.1-0.3,0.2-0.6,0.3-0.9c0.1-0.3,0.2-0.7,0.2-1c0,0,0,0,0,0c0.3-1.2,0.6-2.4,0.8-3.6  c0.1-0.5,0.2-1.1,0.3-1.6c0.2-0.5,0.5-1.1,0.7-1.6c0.5-0.2,0.9-0.5,1.4-0.7c5.4-2.3,11.2-4.1,17.1-4.1c5.9,0,11.7,1.8,17.2,4.1  c0,0,0,0,0,0c0.5,0.2,0.9,0.5,1.4,0.7c0.2,0.4,0.5,1.1,0.7,1.6c0.1,0.5,0.2,1.1,0.3,1.6c0.2,1.2,0.5,2.4,0.8,3.6c0,0,0,0,0,0  c0.1,0.3,0.2,0.7,0.2,1c0.1,0.3,0.2,0.6,0.3,0.9c0.4,1.5,0.9,3,1.5,4.4c0.4,1.1,0.7,2.2,1.1,3.3c0.6,0.2,1.3,0.5,1.9,0.7  c0.4,0.2,0.8,0.3,1.2,0.5c1.2,2.4,2.4,4.9,3.5,7.3c1.1,2.4,2.2,4.9,3.3,7.3c0.8,1.9,1.6,3.7,2.6,5.5c0.4,0.8,0.7,1.5,1.1,2.3  c0.5,0.3,1,0.5,1.5,0.8c1.3,0.8,2.8,1.4,4.3,1.8c0.9,0.3,1.9,0.6,2.8,0.9c0,0,0.1,0,0.1,0c0,0,0,0,0,0c0.7,0.2,1.4,0.3,2.1,0.5  c12.6,2.6,25.4,2.6,38.2,2.5c19.3-0.3,38.7-2.1,57.4-6.7c2.6-0.8,5.4-1.6,8-2.7c0.3-0.1,0.5-0.1,0.8-0.2c0.3-0.2,0.5-0.4,0.8-0.5  c0,0,0,0,0,0c1.6-0.8,3-1.7,4.3-3c0.1-0.2,0.2-0.4,0.3-0.6c0.2-0.3,0.4-0.7,0.5-1.1c0,0,0,0,0,0c0.9-2.2,1.7-4.5,2.4-6.7  c0.8-2.1,1.5-4.2,2.3-6.4c0.1-0.2,0.1-0.4,0.2-0.5c0,0,0,0,0-0.1c0-0.1,0-0.1,0.1-0.2c0.5-1.3,1-2.5,1.5-3.8  c0.4-0.6,0.8-1.2,1.3-1.8c0.7-0.6,1.5-1.3,2-2c0.1,0,0.1-0.1,0.1-0.1c0-0.1,0-0.1,0.1-0.2c0.3-0.5,0.4-1,0.5-1.6  c0.1-0.4,0.2-0.9,0.2-1.3c1.1-5.2,1.5-10.5,1.5-15.8c0-2-0.1-3.9-0.2-5.8c0,0,0,0,0,0c-0.1-1.1-0.2-2.2-0.3-3.4  c-0.4-2.4-0.8-5.1-1.7-7.5c-0.2-0.6-0.4-1.2-0.6-1.8c-0.6-0.7-1.2-1.4-1.9-2c-0.5-0.4-1-0.8-1.6-1.1c-0.1-0.1-0.2-0.1-0.3-0.2  c0,0,0,0,0,0c-0.2-0.1-0.4-0.2-0.7-0.3c0,0,0,0,0,0c-3.2-1.3-6.5-1.9-9.8-2.3c0,0,0,0-0.1,0c-2.4-0.3-4.8-0.5-7.2-0.6  c-1.7-0.1-3.3-0.3-5-0.5c-0.7,0-1.5,0-2.2,0c-0.2,0-0.3,0-0.5,0c-0.7,0-1.5,0-2.2,0c-2,0-4.1-0.1-6.1-0.1c-2.2,0-4.4-0.1-6.6-0.1  c-2.9,0-5.8,0-8.7,0.2c-1.3,0-2.6,0.1-4,0.1c-1.5,0.3-3,0.4-4.5,0.5c-2.4,0.1-4.8,0.1-7.2,0.2c-0.1,0-0.2,0-0.3,0  c-1.4,0-2.8,0.1-4.3,0.3c-1,0.1-2,0.2-3,0.4c-3.8,0.3-7.6,0.6-11.4,1c-0.6,0.1-1.1,0.1-1.7,0.2c-11.3,1.2-22.5,2.8-33.6,5.2  c0,0-0.1,0-0.1,0c-2.2,0.5-4.5,1-6.7,1.5c-0.5,0.1-1,0.3-1.6,0.4c0,0,0,0,0,0c-0.7,0.2-1.3,0.3-2,0.5c-1,0.3-2,0.6-3,0.9  c-0.3,0.1-0.6,0.2-0.9,0.3c-0.1,0-0.2,0.1-0.3,0.1c-0.1,0-0.3,0.1-0.4,0.1c-0.8,0.3-1.5,0.5-2.3,0.8c-0.6,0.2-1.1,0.4-1.6,0.7  c-0.2,0.1-0.5,0.2-0.7,0.3c-1.8,0.9-3.7,2-5.2,3.4c0,0,0,0,0,0c-0.6,0.5-1.2,1.1-1.7,1.7c0,0.2-0.1,0.5-0.1,0.7  c-0.4,0.7-0.6,1.5-0.8,2.3c-0.5,0.3-1.5,0.8-2.1,1.1c-1.1,0.2-2.2,0.4-3.3,0.5c-1.8,0.3-3.7,0.5-5.5,0.6c-2.2,0.1-4.4,0.2-6.6,0.2  c-2.2,0-4.4-0.1-6.6-0.2c-1.9-0.1-3.7-0.3-5.5-0.6c-1.1-0.2-2.2-0.4-3.3-0.5c-0.5-0.3-1.5-0.8-2.1-1.1c-0.2-0.8-0.4-1.6-0.8-2.3  c0-0.2-0.1-0.5-0.1-0.7c-0.5-0.6-1.1-1.2-1.7-1.7c0,0,0,0,0,0c0,0,0,0,0,0c-1.5-1.4-3.3-2.5-5.2-3.4c-0.2-0.1-0.5-0.2-0.7-0.3  c-0.5-0.2-1.1-0.5-1.6-0.7c-0.8-0.3-1.5-0.5-2.3-0.8c-0.1,0-0.3-0.1-0.4-0.1c-0.1,0-0.2-0.1-0.3-0.1c-0.3-0.1-0.6-0.2-0.9-0.3  c-1-0.3-2-0.6-3-0.9c-0.6-0.2-1.3-0.3-1.9-0.5c0,0,0,0-0.1,0c-0.5-0.1-1.1-0.3-1.6-0.4c-2.2-0.5-4.4-1-6.7-1.5c0,0-0.1,0-0.1,0  c-11.1-2.4-22.3-4-33.6-5.2c-0.2,0-0.3,0-0.5-0.1c-0.4,0-0.8-0.1-1.2-0.1C87.8,9,84,8.6,80.2,8.4c-1-0.2-2-0.3-3-0.4  c-1.4-0.2-2.8-0.2-4.3-0.3c-0.1,0-0.2,0-0.3,0c-2.4-0.1-4.8-0.1-7.2-0.2C64,7.4,62.5,7.3,61,7c-1.3,0-2.6-0.1-4-0.1  C54.1,6.8,51.3,6.7,48.4,6.7L48.4,6.7z M33.9,17.8c2.5,0.1,4.9,0,7.4,0c3.1,0.1,6.2,0.2,9.3,0.4c0.7,0.1,1.4,0.2,2.1,0.3  c2.2,0.2,4.4,0.2,6.7,0.3c1.9,0.1,3.8,0.3,5.6,0.4c0.6,0.1,1.1,0.2,1.7,0.3c1.3,0.1,2.7,0.2,4,0.2c1.8,0.2,3.6,0.4,5.3,0.6  c0,0,0,0,0,0c0.2,0,0.4,0.1,0.6,0.1c2.4,0.2,4.9,0.5,7.3,0.8c5.1,0.7,10.1,1.4,15.1,2.3c0.1,0,0.2,0,0.3,0.1  c7.2,1.3,14.4,2.8,21.6,4.5c1.8,0.4,3.6,0.9,5.4,1.4c1.1,0.3,2.1,0.6,3.2,0.9c0.6,0.2,1.2,0.3,1.7,0.5c0.6,0.2,1.2,0.3,1.8,0.5  c0.7,0.2,1.4,0.5,2.2,0.7c2.6,0.9,5.3,1.8,7.8,2.8c0.6,0.3,1.2,0.6,1.8,0.9c0.5,0.8,0.9,1.6,1.1,2.5c0.3,1.2,0.6,2.5,0.7,3.7  c0.1,1.4,0.1,2.8,0.1,4.2c-0.1,1.3-0.2,2.6-0.4,3.9c0,0,0,0.1,0,0.1c0,0,0,0,0,0c-0.1,0.8-0.3,1.5-0.5,2.3c0,0,0,0,0,0  c-0.5,1.6-1.3,3-2.8,4.1c-2.5,5.5-4.7,11.1-7.1,16.7c0,0.1-0.1,0.1-0.1,0.2c-1,2.3-2,4.6-3.2,6.9c-9.1,4-19.2,4.7-29,5.4  c-21.8,1.6-43.6-0.6-65.1-4.5c-1.3-0.4-2.7-0.7-4-1c-1.3-0.3-2.7-0.6-4-0.9c-1.3-0.4-2.6-0.7-3.9-1c-2-0.8-4.1-1.4-6.1-2.3  c-1.3-0.6-2.7-1.3-4-2c-0.3-0.2-0.7-0.4-1-0.7c-0.6-1.5-1.1-3-1.6-4.5c0,0,0,0,0,0c-1.4-4.7-2.9-9.5-4.6-14.1  c-0.2-0.9-0.3-1.8-0.5-2.6c-0.4-0.6-0.8-1.3-1.3-1.9c-0.4-0.9-0.7-1.7-1.1-2.6c-0.4-5-0.4-9.9,0-14.9c0.1-0.4,0.1-0.8,0.2-1.2  c0.3-1.1,0.6-2.2,0.8-3.3c0.5-1.8,1.1-3.5,1.8-5.2c0.6-1.2,1.4-2.3,2.5-3.1c0,0,0,0,0,0c1.5-0.9,3.5-1.1,5.4-1.3  c0.6-0.1,1.2-0.1,1.9-0.2c0.5-0.1,1-0.2,1.5-0.3c2.8-0.2,5.6-0.4,8.5-0.5C30.8,17.8,32.4,17.8,33.9,17.8L33.9,17.8z M309.8,17.8  c1.6,0,3.2,0,4.7,0c2.8,0.1,5.6,0.2,8.5,0.5c0.5,0.1,1,0.2,1.5,0.3c0.6,0,1.2,0.1,1.9,0.2c1.9,0.2,3.9,0.4,5.4,1.3c0,0,0,0,0,0  c1.1,0.8,1.9,1.8,2.5,3c0.7,1.7,1.3,3.4,1.8,5.2c0.2,1.1,0.5,2.2,0.8,3.3c0.1,0.4,0.1,0.8,0.2,1.2c0.4,5,0.4,9.9,0,14.9  c-0.4,0.9-0.8,1.7-1.1,2.6c-0.4,0.6-0.9,1.3-1.3,1.9c-0.2,0.9-0.3,1.8-0.5,2.6c-1.7,4.7-3.2,9.5-4.6,14.2c-0.5,1.5-1,3-1.6,4.4  c-0.3,0.2-0.6,0.5-1,0.7c-1.3,0.7-2.7,1.4-4,2c-2,0.8-4.1,1.5-6.1,2.3c-1.3,0.3-2.6,0.6-3.9,1c-1.3,0.3-2.7,0.6-4,0.9  c-1.4,0.3-2.7,0.6-4,1c-21.4,3.9-43.3,6.1-65.1,4.5c-9.8-0.8-19.9-1.5-29-5.4c-1.1-2.3-2.2-4.7-3.2-7.1c-2.3-5.6-4.6-11.2-7.1-16.7  c-1.5-1-2.3-2.4-2.8-4c0,0,0,0,0-0.1c-0.2-0.8-0.4-1.5-0.5-2.3c0,0,0-0.1,0-0.1c-0.2-1.3-0.3-2.7-0.4-3.9c0-1.4,0-2.8,0.1-4.2  c0.1-1.3,0.4-2.5,0.7-3.7c0.3-0.9,0.6-1.7,1.1-2.5c0.6-0.3,1.2-0.6,1.8-0.9c2.6-1,5.2-2,7.8-2.8c0.7-0.2,1.4-0.5,2.2-0.7  c0.6-0.2,1.2-0.3,1.7-0.5c0.6-0.2,1.2-0.3,1.8-0.5c1-0.3,2.1-0.6,3.2-0.9c1.8-0.5,3.6-0.9,5.4-1.4c7.2-1.7,14.4-3.3,21.6-4.6  c0.1,0,0.2,0,0.2,0c5.1-0.9,10.1-1.7,15.2-2.3c2.4-0.3,4.9-0.6,7.3-0.8c0.2,0,0.4-0.1,0.6-0.1c0,0,0,0,0,0c1.8-0.2,3.6-0.4,5.3-0.6  c1.3-0.1,2.7-0.1,4-0.2c0.6-0.1,1.1-0.2,1.7-0.3c1.9-0.1,3.8-0.3,5.6-0.4c2.2-0.1,4.4-0.1,6.7-0.3c0.7-0.1,1.4-0.2,2.1-0.3  c3.1-0.2,6.2-0.3,9.3-0.4C304.9,17.8,307.3,17.8,309.8,17.8L309.8,17.8z" />
<text
   xml:space="preserve"
   style="font-style:normal;font-variant:normal;font-weight:normal;font-stretch:normal;font-size:33.79083252px;line-height:1.25;font-family:'ITC Zapf Chancery Light';-inkscape-font-specification:'ITC Zapf Chancery Light, ';letter-spacing:0px;word-spacing:0px;fill:#009999;fill-opacity:1;stroke:none;stroke-width:0.84477079;"
   x="14.109653"
   y="97.337494"
   id="text842"><tspan
     sodipodi:role="line"
     id="tspan840"
     x="14.109653"
     y="97.337494"
     style="font-style:normal;font-variant:normal;font-weight:normal;font-stretch:normal;font-family:DayPosterBlack;-inkscape-font-specification:DayPosterBlack;fill:#009999;stroke-width:0.84477079;fill-opacity:1;">SPECX</tspan></text>
<text
   xml:space="preserve"
   style="font-style:normal;font-variant:normal;font-weight:normal;font-stretch:normal;font-size:10.54156399px;line-height:1.25;font-family:'ITC Zapf Chancery Light';-inkscape-font-specification:'ITC Zapf Chancery Light, ';letter-spacing:0px;word-spacing:0px;fill:#009999;fill-opacity:1;stroke:none;stroke-width:0.26353908;"
   x="15.362065"
   y="107.74789"
   id="text842-0"><tspan
     sodipodi:role="line"
     id="tspan840-2"
     x="15.362065"
     y="107.74789"
     style="font-style:normal;font-variant:normal;font-weight:normal;font-stretch:normal;font-family:DayPosterBlack;-inkscape-font-specification:DayPosterBlack;fill:#009999;stroke-width:0.26353908;fill-opacity:1;">Technology Services</tspan></text>
</svg>