<?xml version="1.0" encoding="UTF-8" standalone="no"?>
<svg
   xmlns:dc="http://purl.org/dc/elements/1.1/"
   xmlns:cc="http://creativecommons.org/ns#"
   xmlns:rdf="http://www.w3.org/1999/02/22-rdf-syntax-ns#"
   xmlns:svg="http://www.w3.org/2000/svg"
   xmlns="http://www.w3.org/2000/svg"
   xmlns:sodipodi="http://sodipodi.sourceforge.net/DTD/sodipodi-0.dtd"
   xmlns:inkscape="http://www.inkscape.org/namespaces/inkscape"
   width="344pt"
   height="111pt"
   viewBox="0 0 344 111"
   version="1.1"
   id="svg2"
   inkscape:version="0.91 r13725"
   sodipodi:docname="logo.svg"
   inkscape:export-filename="C:\Users\Jack\Documents\GitHub\jack\images\logo.png"
   inkscape:export-xdpi="180.32433"
   inkscape:export-ydpi="180.32433">
  <metadata
     id="metadata38">
    <rdf:RDF>
      <cc:Work
         rdf:about="">
        <dc:format>image/svg+xml</dc:format>
        <dc:type
           rdf:resource="http://purl.org/dc/dcmitype/StillImage" />
        <dc:title />
      </cc:Work>
    </rdf:RDF>
  </metadata>
  <defs
     id="defs36" />
  <sodipodi:namedview
     pagecolor="#ffffff"
     bordercolor="#666666"
     borderopacity="1"
     objecttolerance="10"
     gridtolerance="10"
     guidetolerance="10"
     inkscape:pageopacity="0"
     inkscape:pageshadow="2"
     inkscape:window-width="1920"
     inkscape:window-height="1017"
     id="namedview34"
     showgrid="false"
     inkscape:zoom="2.2440426"
     inkscape:cx="117.13606"
     inkscape:cy="52.000477"
     inkscape:window-x="1912"
     inkscape:window-y="-8"
     inkscape:window-maximized="1"
     inkscape:current-layer="svg2" />
  <path
     style="fill:#000000;fill-opacity:1"
     d="m 48.362303,6.7406965 c -2.201179,0.00829 -4.402891,0.043317 -6.604076,0.079628 -2.040621,0.016077 -4.080705,0.043521 -6.12078,0.079639 -0.741853,0.00461 -1.483297,0.00774 -2.22426,0.00553 -0.150211,0.016743 -0.299913,0.033486 -0.450318,0.049409 -0.732935,0.015873 -1.466811,0.031284 -2.199536,0.049409 -1.644429,0.2239504 -3.308945,0.3744624 -4.981202,0.5107507 -2.390779,0.1605424 -4.781471,0.3349962 -7.150524,0.6260872 -0.02284,0.00256 -0.04583,0.00542 -0.06866,0.00824 -3.367951,0.3871706 -6.687816,1.0038163 -9.8498079,2.2791696 -0.010291,0.0041 -0.019913,0.0096 -0.030204,0.01372 -0.2173046,0.0794 -0.4276049,0.165898 -0.6343157,0.263611 -0.00645,0.0026 -0.012749,0.0054 -0.019303,0.0082 -0.1135126,0.04962 -0.2274667,0.102313 -0.3405299,0.153781 -0.617854,0.324306 -1.1602319,0.711471 -1.6393451,1.153309 -0.00205,0.0015 -0.00358,0.0036 -0.00548,0.0055 -0.6783826,0.578622 -1.2932054,1.240745 -1.8535344,1.933164 -0.1963374,0.586042 -0.3790961,1.174373 -0.5519321,1.765669 -0.9392819,2.378337 -1.2982046,5.114495 -1.6970184,7.496519 -0.102608,1.119112 -0.1888672,2.240553 -0.2608513,3.366572 0,0.0074 -0.00205,0.01459 -0.00256,0.02197 -0.1603376,1.983179 -0.2243601,3.97861 -0.2114522,5.97525 -0.029953,5.271668 0.3880565,10.549015 1.4883262,15.690515 0.074652,0.441926 0.1492525,0.883712 0.2279185,1.32356 0.037889,0.582033 0.2089176,1.093244 0.4640651,1.556976 0.017818,0.06671 0.034049,0.133801 0.052169,0.200455 0.049972,0.04342 0.098783,0.08797 0.148295,0.131808 0.5149184,0.771623 1.2576479,1.408001 1.9853444,2.026531 0.4645311,0.557953 0.8855817,1.14547 1.2604026,1.76017 0.5089842,1.255625 1.0049888,2.51249 1.4992835,3.775719 0.024422,0.06695 0.049768,0.133503 0.074161,0.200459 0.00358,0.01921 0.00707,0.03845 0.010961,0.05766 0.06735,0.174064 0.1344549,0.347238 0.200433,0.521733 0.7691497,2.116655 1.5267067,4.239086 2.2874127,6.36244 0.764178,2.24895 1.516717,4.502928 2.421935,6.691943 0.0083,0.02284 0.01638,0.04583 0.02473,0.06864 0.115434,0.408435 0.279223,0.776502 0.480577,1.114877 0.08973,0.200839 0.18151,0.401943 0.274579,0.601362 1.271667,1.23109 2.726308,2.184478 4.280991,2.968409 0.0064,0.0031 0.01259,0.0076 0.0193,0.01101 0.27998,0.169278 0.551778,0.342431 0.812809,0.521724 0.25633,0.06853 0.514288,0.137266 0.771618,0.205953 2.603879,1.09709 5.398648,1.839426 8.045711,2.658107 18.772524,4.590837 38.146115,6.469165 57.437629,6.738629 12.764517,0.09981 25.647096,0.05033 38.202026,-2.534533 0.70645,-0.132811 1.40844,-0.289088 2.10343,-0.466825 0,0.0021 -0.002,0.0036 -0.003,0.0055 0.029,-0.0096 0.0589,-0.01792 0.0879,-0.0275 0.96076,-0.248332 1.90863,-0.540252 2.84478,-0.867727 1.5175,-0.464014 3.02581,-0.991436 4.33867,-1.820579 0.51435,-0.252208 1.023,-0.512844 1.52678,-0.785349 0.35448,-0.760281 0.71198,-1.519472 1.06817,-2.279164 0.95642,-1.807266 1.7871,-3.678825 2.60318,-5.557856 1.12962,-2.417116 2.25147,-4.838503 3.34462,-7.274103 1.09781,-2.465078 2.21691,-4.920064 3.45443,-7.315285 0.35558,-0.204018 0.76761,-0.361985 1.18078,-0.521724 0.6416,-0.233935 1.28296,-0.470143 1.92491,-0.705725 0.35836,-1.086527 0.71404,-2.173172 1.07094,-3.259469 0.52238,-1.45798 1.01308,-2.928478 1.45262,-4.412789 0.0944,-0.286535 0.18833,-0.572941 0.28284,-0.85949 0.0776,-0.325923 0.15588,-0.65155 0.2334,-0.97757 0,-0.0015 0,-0.0036 0,-0.0056 0.31808,-1.204419 0.59802,-2.417507 0.83204,-3.641157 0.11531,-0.539547 0.22573,-1.078683 0.3295,-1.620134 0.20897,-0.456113 0.5274,-1.147488 0.72769,-1.59267 0.46511,-0.24439 0.93515,-0.480614 1.4087,-0.708455 5.42285,-2.334114 11.2213,-4.078397 17.12942,-4.105242 5.91625,0.02688 11.72206,1.777272 17.15137,4.11623 0.009,0.0041 0.0185,0.0071 0.0274,0.01096 0.45766,0.220868 0.90952,0.450158 1.35929,0.68649 0.20066,0.446052 0.52156,1.139505 0.73041,1.595413 0.10362,0.540499 0.21165,1.078791 0.32676,1.617386 0.23403,1.223649 0.51398,2.436742 0.83205,3.641155 0,0.0015 0,0.0036 0,0.0056 0.0775,0.32602 0.1558,0.651642 0.23339,0.97757 0.0945,0.286545 0.18848,0.572956 0.28285,0.859484 0.43952,1.484313 0.93025,2.954811 1.45262,4.412789 0.35691,1.086302 0.71257,2.172947 1.07094,3.259475 0.64194,0.235583 1.2833,0.471791 1.9249,0.705721 0.41318,0.159738 0.8252,0.317705 1.18079,0.521728 1.23751,2.395222 2.35661,4.850212 3.45442,7.315285 1.09317,2.435595 2.21503,4.856987 3.34463,7.274099 0.81491,1.876315 1.64573,3.744768 2.60042,5.549626 0.35742,0.762283 0.71523,1.524516 1.07095,2.287393 0.50421,0.272756 1.01465,0.532932 1.5295,0.78535 1.31271,0.828917 2.81867,1.356645 4.33592,1.820578 0.93612,0.327454 1.88409,0.619405 2.84482,0.867733 0.029,0.0096 0.059,0.01787 0.0878,0.02744 0,-0.0021 -0.002,-0.0036 -0.003,-0.0055 0.69501,0.177741 1.39701,0.334018 2.10345,0.466825 12.55492,2.584837 25.4375,2.634339 38.20204,2.534537 19.29151,-0.269469 38.66508,-2.147796 57.43761,-6.738629 2.64748,-0.818805 5.44427,-1.560755 8.04845,-2.658106 0.25649,-0.06846 0.51342,-0.137651 0.76891,-0.205953 0.26531,-0.182257 0.5444,-0.357981 0.82926,-0.529972 0.002,-0.001 0.004,-0.0015 0.006,-0.0025 1.55388,-0.783732 3.00717,-1.737893 4.27824,-2.968404 0.0931,-0.19943 0.18485,-0.400529 0.27461,-0.601367 0.20129,-0.338376 0.3651,-0.706443 0.48054,-1.114878 0.005,-0.01356 0.008,-0.0276 0.0135,-0.04116 0.90927,-2.195076 1.66371,-4.455399 2.43019,-6.711169 0.75939,-2.119682 1.51689,-4.238417 2.28466,-6.351452 0.0684,-0.1809 0.13609,-0.360504 0.20594,-0.540949 0.004,-0.01833 0.008,-0.03661 0.0109,-0.05492 0.0247,-0.06779 0.0494,-0.135423 0.0742,-0.203204 0.49432,-1.263228 0.99035,-2.520098 1.49933,-3.775718 0.37507,-0.61513 0.79822,-1.201869 1.26314,-1.760176 0.7266,-0.617583 1.46811,-1.253587 1.98258,-2.023786 0.0501,-0.04439 0.0977,-0.09056 0.14831,-0.134553 0.0183,-0.06665 0.0342,-0.133749 0.0522,-0.200454 0.25515,-0.463727 0.42616,-0.974939 0.46407,-1.556972 0.0787,-0.439847 0.15324,-0.881639 0.22791,-1.32356 1.10983,-5.186152 1.52634,-10.510476 1.48832,-15.827816 0.009,-1.950753 -0.0548,-3.900231 -0.21142,-5.837949 0,-0.0074 -0.002,-0.01459 -0.003,-0.02197 -0.072,-1.126014 -0.15828,-2.247454 -0.26086,-3.366566 -0.39787,-2.376407 -0.75442,-5.105638 -1.6888,-7.480048 -0.17425,-0.596897 -0.36194,-1.190599 -0.56016,-1.782141 -0.57462,-0.710073 -1.20383,-1.388166 -1.90297,-1.9771 -0.46848,-0.425563 -0.99602,-0.800255 -1.59542,-1.114863 -0.11305,-0.05147 -0.22703,-0.104134 -0.34049,-0.153774 0,-3.43e-4 -0.002,3.43e-4 -0.003,0 -0.21139,-0.100472 -0.42833,-0.190567 -0.65079,-0.271854 -0.0103,-0.0036 -0.0199,-0.01004 -0.0302,-0.01372 -3.16089,-1.2748977 -6.4776,-1.8919735 -9.84436,-2.2791697 -0.0237,-0.00256 -0.0476,-0.00553 -0.0714,-0.00824 -2.37168,-0.2914084 -4.76533,-0.465386 -7.15876,-0.6260872 -1.67004,-0.1361551 -3.33343,-0.2870921 -4.9757,-0.5107506 -0.73196,-0.018125 -1.46463,-0.033589 -2.1968,-0.049409 -0.15077,-0.015924 -0.30249,-0.032615 -0.45309,-0.049409 -0.74003,0.00205 -1.48056,-0.00103 -2.22148,-0.00553 -2.04025,-0.036097 -4.08274,-0.063557 -6.12352,-0.079639 -2.20122,-0.036353 -4.40291,-0.07137 -6.60409,-0.079634 -2.8912,-0.010854 -5.77963,0.027136 -8.66082,0.1730048 -1.32055,0.027905 -2.64004,0.062317 -3.95969,0.1015992 -1.48758,0.2706872 -2.98465,0.4214297 -4.48693,0.5107456 -2.41433,0.086602 -4.83277,0.1061356 -7.24665,0.1922208 -0.0869,0.00308 -0.17398,0.00512 -0.26086,0.00824 -1.42477,0.041371 -2.8466,0.1117371 -4.26176,0.2636162 -1.00515,0.093376 -2.0088,0.2142733 -3.00957,0.3706991 -3.79837,0.2824532 -7.59599,0.6080028 -11.39033,0.9857984 -0.5668,0.056444 -1.13317,0.1141999 -1.69977,0.1730049 -11.28916,1.1715675 -22.53797,2.8199145 -33.6355,5.1871505 -0.032,0.0067 -0.0641,0.01255 -0.0961,0.01925 -2.22802,0.464854 -4.45041,0.956619 -6.66723,1.471845 -0.52396,0.149693 -1.04939,0.292028 -1.57618,0.433861 -0.01,0.0025 -0.0201,0.0056 -0.0302,0.0082 -0.65111,0.162335 -1.30259,0.32644 -1.9524,0.494274 -1.00799,0.319379 -2.0136,0.620506 -3.03158,0.919907 -0.28651,0.100739 -0.57205,0.199353 -0.85947,0.29657 -0.11144,0.03431 -0.22377,0.06692 -0.33501,0.101594 -0.12759,0.04454 -0.2543,0.08957 -0.38169,0.134557 -0.7574,0.250857 -1.51708,0.499277 -2.27643,0.752402 -0.55116,0.21199 -1.09723,0.439698 -1.6366,0.681001 -0.24148,0.08992 -0.4835,0.179477 -0.72492,0.269105 -1.84515,0.917285 -3.71858,1.99346 -5.18718,3.415998 -0.008,0.0076 -0.0159,0.017 -0.0247,0.02473 -0.61097,0.536849 -1.19069,1.114422 -1.73,1.738195 -0.0264,0.173067 -0.07,0.455571 -0.1071,0.691989 -0.36612,0.70253 -0.64149,1.46868 -0.79633,2.312112 -0.51895,0.269469 -1.53775,0.817945 -2.05671,1.087408 -1.1078,0.169661 -2.20562,0.350336 -3.30344,0.529978 -1.8375,0.285724 -3.68468,0.476527 -5.53862,0.598611 -2.19487,0.09271 -4.39579,0.162807 -6.59311,0.175745 -2.19979,-0.01295 -4.4012,-0.08288 -6.59855,-0.175745 -1.85212,-0.1221 -3.69745,-0.313169 -5.53316,-0.598611 -1.09782,-0.179652 -2.19563,-0.360317 -3.30341,-0.529978 -0.51897,-0.269463 -1.53778,-0.817939 -2.05674,-1.087408 -0.15483,-0.843432 -0.43019,-1.609582 -0.79633,-2.312112 -0.0371,-0.236418 -0.0806,-0.518922 -0.10711,-0.691989 -0.53932,-0.623798 -1.11898,-1.201321 -1.72996,-1.738195 -0.005,-0.0046 -0.009,-0.0092 -0.0137,-0.01372 -0.004,-0.0036 -0.008,-0.0076 -0.0108,-0.01096 -1.46859,-1.422538 -3.34204,-2.498712 -5.18716,-3.415998 -0.24143,-0.08963 -0.48347,-0.179185 -0.72494,-0.269104 -0.53937,-0.241304 -1.08542,-0.469012 -1.6366,-0.681002 -0.76046,-0.253494 -1.52065,-0.501156 -2.27916,-0.752402 -0.12632,-0.0446 -0.25241,-0.09039 -0.37895,-0.134552 -0.10406,-0.03241 -0.20881,-0.064 -0.31303,-0.0961 -0.29385,-0.09931 -0.58859,-0.199092 -0.88146,-0.302058 -1.01798,-0.299402 -2.02359,-0.600538 -3.03159,-0.919907 -0.63894,-0.165028 -1.27924,-0.326329 -1.91941,-0.486037 -0.0204,-0.0051 -0.0402,-0.01141 -0.0605,-0.01649 -0.52676,-0.141834 -1.05496,-0.284169 -1.57891,-0.433866 -2.21684,-0.515221 -4.43922,-1.006987 -6.66724,-1.471845 -0.032,-0.0067 -0.0641,-0.01255 -0.0961,-0.0192 C 115.87608,12.339655 104.62856,10.691467 93.338731,9.5198738 93.172268,9.5025164 93.005448,9.4848006 92.838956,9.4676998 92.439354,9.4267385 92.038675,9.3866838 91.638971,9.3468743 87.844928,8.9691197 84.046721,8.6435087 80.248663,8.3610708 79.249756,8.2049471 78.247804,8.0864257 77.244566,7.9931109 75.831394,7.8412625 74.411038,7.7682134 72.988311,7.7267554 c -0.09071,-0.00358 -0.181182,-0.00512 -0.27187,-0.00824 C 70.3034,7.6325024 67.883257,7.6128618 65.469806,7.5262903 63.967518,7.4369687 62.470451,7.2862268 60.982883,7.0155397 59.663256,6.9762679 58.343715,6.9418606 57.023171,6.9139456 54.141979,6.7680826 51.253582,6.7300911 48.36237,6.7409407 z M 33.948663,17.754817 c 2.461452,0.07055 4.937639,0.02565 7.411401,0.01096 3.112044,0.0754 6.223664,0.204028 9.333574,0.370699 0.693724,0.08095 1.385826,0.178766 2.075961,0.296565 2.208717,0.170629 4.433725,0.187653 6.653516,0.258121 1.884529,0.134564 3.7668,0.276218 5.648471,0.422885 0.558245,0.079 1.114437,0.173598 1.66956,0.285581 1.33574,0.104293 2.68059,0.157941 4.022853,0.230663 1.778004,0.176251 3.553759,0.364216 5.329946,0.56293 0,8.7e-5 0.0021,-8.7e-5 0.0025,0 0.205323,0.03912 0.410513,0.0814 0.615099,0.126304 2.44023,0.248675 4.87709,0.527165 7.309792,0.837529 5.054585,0.667371 10.097461,1.437124 15.119356,2.314857 0.105988,0.01879 0.212579,0.03604 0.318538,0.05492 7.22752,1.289147 14.41511,2.815638 21.55317,4.539103 1.80674,0.448049 3.60872,0.914987 5.40684,1.397709 1.05377,0.294614 2.11057,0.579095 3.15788,0.90342 0.57984,0.151998 1.16114,0.302059 1.74094,0.455833 0.58559,0.168586 1.17014,0.341002 1.75468,0.513495 0.71992,0.238174 1.44289,0.470234 2.16658,0.702971 2.63595,0.890451 5.25249,1.835268 7.84528,2.847584 0.59891,0.269335 1.19079,0.55465 1.77389,0.859494 0.4962,0.771279 0.86684,1.602194 1.14505,2.47138 0.32529,1.222504 0.55674,2.463747 0.69749,3.715301 0.12231,1.406963 0.12746,2.829556 0.12358,4.18487 -0.13036,1.25562 -0.20729,2.606691 -0.3927,3.932243 -0.005,0.03302 -0.009,0.06584 -0.0136,0.09885 0,0.0025 -0.003,0.0055 -0.003,0.0082 -0.13525,0.771059 -0.29988,1.536383 -0.49156,2.295636 0,0.0025 -0.002,0.0055 -0.003,0.0082 -0.48894,1.606746 -1.31723,3.047782 -2.82837,4.06405 -2.49617,5.494406 -4.73799,11.094076 -7.07088,16.659842 -0.0296,0.06857 -0.0582,0.13742 -0.0878,0.205952 -1.00169,2.313624 -2.04174,4.6097 -3.15515,6.867683 -9.0719,3.972081 -19.21055,4.689543 -28.98107,5.448022 -21.766024,1.606875 -43.643661,-0.598098 -65.070893,-4.470378 -1.337333,-0.359271 -2.67381,-0.669173 -4.031091,-0.988552 -1.317381,-0.339303 -2.663551,-0.63872 -4.000894,-0.928131 -1.277457,-0.359286 -2.566169,-0.668201 -3.863585,-0.977565 -2.000019,-0.778683 -4.084203,-1.445328 -6.093336,-2.262688 -1.342852,-0.639789 -2.677456,-1.301118 -3.995394,-1.993588 -0.332477,-0.209942 -0.658431,-0.430738 -0.977575,-0.664519 -0.570002,-1.479525 -1.098319,-2.974399 -1.606387,-4.475951 -0.0031,-0.01014 -0.0075,-0.02007 -0.01096,-0.03021 C 12.716683,64.169297 11.274607,59.418359 9.5619814,54.77606 9.3962829,53.899576 9.2358899,53.020031 9.067687,52.145422 8.6452234,51.511711 8.218085,50.877928 7.7825648,50.250688 7.4146254,49.375737 7.0333685,48.505469 6.6375142,47.642017 6.2816072,42.685565 6.233442,37.702366 6.6732016,32.747829 c 0.065282,-0.39629 0.135551,-0.792114 0.2114521,-1.186263 0.3004609,-1.100664 0.5570266,-2.207226 0.7798506,-3.32812 0.4903878,-1.776151 1.0955641,-3.51816 1.8233169,-5.206377 0.6232818,-1.217588 1.4173408,-2.297551 2.4988398,-3.064509 0.0025,-0.0021 0.0055,-0.0036 0.0082,-0.0055 1.532492,-0.86127 3.493158,-1.100167 5.390375,-1.29335 0.620649,-0.05063 1.241806,-0.101763 1.861774,-0.151029 0.497362,-0.10482 0.996438,-0.194781 1.496554,-0.271855 2.820862,-0.222875 5.643469,-0.373505 8.468601,-0.458581 1.581805,0.0015 3.162636,0.01423 4.736812,-0.02744 z m 275.860967,0 c 1.57364,0.04167 3.15551,0.02914 4.73682,0.02744 2.82515,0.08507 5.64774,0.235702 8.46859,0.458582 0.50011,0.07708 0.9992,0.167034 1.49657,0.271854 0.6227,0.04946 1.2466,0.100155 1.87,0.151029 1.89532,0.193076 3.85129,0.433001 5.38213,1.293351 0.003,0.0015 0.006,0.0041 0.008,0.0055 1.07253,0.760624 1.86413,1.829062 2.48508,3.034305 0.73178,1.693409 1.34164,3.440749 1.83432,5.222849 0.22347,1.125588 0.48094,2.236702 0.78262,3.341857 0.0758,0.394139 0.14613,0.789972 0.21144,1.186263 0.43975,4.954536 0.3916,9.937736 0.0357,14.894187 -0.3951,0.861727 -0.77506,1.729982 -1.14234,2.603189 -0.4367,0.628847 -0.86427,1.264815 -1.28788,1.900212 -0.1682,0.874609 -0.32854,1.754158 -0.49426,2.630637 -1.72396,4.672934 -3.1756,9.455355 -4.616,14.232412 -0.50152,1.480216 -1.02518,2.954062 -1.58716,4.412789 -0.31857,0.233371 -0.64296,0.454905 -0.97481,0.664519 -1.32195,0.694605 -2.66219,1.3547 -4.00915,1.996327 -2.00552,0.81519 -4.08621,1.482776 -6.08233,2.259943 -1.29743,0.309371 -2.58612,0.618284 -3.86359,0.977571 -1.33734,0.289412 -2.68352,0.588823 -4.00091,0.92813 -1.3573,0.31937 -2.69375,0.629283 -4.03108,0.988554 -21.42725,3.872274 -43.30486,6.077248 -65.07144,4.470451 -9.7705,-0.758469 -19.90915,-1.47594 -28.98105,-5.448022 -1.1478,-2.327724 -2.21546,-4.695626 -3.24575,-7.081873 -2.3316,-5.562883 -4.57327,-11.160092 -7.06816,-16.651603 -1.49328,-1.004252 -2.3207,-2.42256 -2.81185,-4.006382 -0.007,-0.02171 -0.0127,-0.04414 -0.0193,-0.0659 -0.19167,-0.759252 -0.35355,-1.524578 -0.48878,-2.295637 -0.007,-0.03558 -0.0103,-0.07152 -0.0166,-0.107098 -0.18537,-1.325556 -0.26506,-2.676621 -0.39542,-3.932242 -0.004,-1.352688 0.002,-2.772337 0.12359,-4.176627 0.14139,-1.260786 0.37431,-2.511511 0.70295,-3.742775 0.27755,-0.862331 0.64699,-1.686466 1.13959,-2.452154 0.58309,-0.304839 1.17497,-0.590159 1.77391,-0.859495 2.59276,-1.01231 5.20929,-1.957127 7.84526,-2.847583 0.72367,-0.232737 1.44664,-0.464797 2.16657,-0.702967 0.5754,-0.169789 1.15084,-0.339246 1.72721,-0.505261 0.58979,-0.156472 1.17858,-0.309457 1.76841,-0.464071 1.0473,-0.32432 2.1041,-0.608801 3.15788,-0.903415 1.78354,-0.478806 3.57093,-0.942046 5.3629,-1.386727 7.15305,-1.72797 14.35421,-3.258194 21.59712,-4.55009 0.0759,-0.01352 0.15196,-0.0277 0.22791,-0.04116 5.05227,-0.88445 10.12456,-1.657142 15.20998,-2.328584 2.4327,-0.310364 4.86955,-0.588853 7.30979,-0.837529 0.20457,-0.0449 0.40976,-0.0872 0.6151,-0.126309 0,-1.33e-4 0.002,1.38e-4 0.003,0 1.77526,-0.198606 3.55009,-0.386746 5.3272,-0.56293 1.34388,-0.07286 2.68822,-0.126243 4.02559,-0.230658 0.55513,-0.111987 1.11132,-0.206577 1.66957,-0.285581 1.88167,-0.146667 3.76393,-0.288327 5.64846,-0.422884 2.21979,-0.07047 4.44481,-0.08749 6.65351,-0.258122 0.69012,-0.117799 1.38224,-0.215615 2.07595,-0.296565 3.11046,-0.166697 6.22373,-0.29531 9.33631,-0.370704 2.47353,0.0147 4.94749,0.05955 7.40868,-0.01096 z"
     id="path3733-1"
     inkscape:connector-curvature="0" />
  <text
     xml:space="preserve"
     style="font-size:35.77773666px;font-style:normal;font-variant:normal;font-weight:normal;font-stretch:normal;line-height:125%;letter-spacing:0px;word-spacing:0px;fill:#009999;fill-opacity:1;stroke:none;font-family:DayPosterBlack;-inkscape-font-specification:DayPosterBlack;"
     x="21.514782"
     y="98.907333"
     id="text3182"
     sodipodi:linespacing="125%"><tspan
       sodipodi:role="line"
       id="tspan3184"
       x="21.514782"
       y="98.907333">Specx</tspan></text>
</svg>
